<?xml version="1.0" encoding="UTF-8"?>
<svg version="1.1" xmlns="http://www.w3.org/2000/svg" width="588" height="522">
<path d="M0 0 C194.04 0 388.08 0 588 0 C588 172.26 588 344.52 588 522 C393.96 522 199.92 522 0 522 C0 349.74 0 177.48 0 0 Z " fill="#EFF0EC" transform="translate(0,0)"/>
<path d="M0 0 C8.58 0 17.16 0 26 0 C26 6.93 26 13.86 26 21 C34.58 21 43.16 21 52 21 C52 14.07 52 7.14 52 0 C60.91 0 69.82 0 79 0 C79 6.93 79 13.86 79 21 C87.91 21 96.82 21 106 21 C106 28.26 106 35.52 106 43 C114.58 43 123.16 43 132 43 C132 49.93 132 56.86 132 64 C114.51 64 97.02 64 79 64 C79 57.07 79 50.14 79 43 C70.42 43 61.84 43 53 43 C53 49.93 53 56.86 53 64 C44.09 64 35.18 64 26 64 C26 57.07 26 50.14 26 43 C17.42 43 8.84 43 0 43 C0 49.93 0 56.86 0 64 C-17.49 64 -34.98 64 -53 64 C-53 57.07 -53 50.14 -53 43 C-44.42 43 -35.84 43 -27 43 C-27 35.74 -27 28.48 -27 21 C-18.09 21 -9.18 21 0 21 C0 14.07 0 7.14 0 0 Z " fill="#777B43" transform="translate(388,143)"/>
<path d="M0 0 C8.91 0 17.82 0 27 0 C27 6.93 27 13.86 27 21 C35.58 21 44.16 21 53 21 C53 14.07 53 7.14 53 0 C61.58 0 70.16 0 79 0 C79 6.93 79 13.86 79 21 C87.91 21 96.82 21 106 21 C106 28.26 106 35.52 106 43 C114.58 43 123.16 43 132 43 C132 49.93 132 56.86 132 64 C114.51 64 97.02 64 79 64 C79 57.07 79 50.14 79 43 C70.42 43 61.84 43 53 43 C53 49.93 53 56.86 53 64 C44.42 64 35.84 64 27 64 C27 57.07 27 50.14 27 43 C18.09 43 9.18 43 0 43 C0 49.93 0 56.86 0 64 C-17.49 64 -34.98 64 -53 64 C-53 57.07 -53 50.14 -53 43 C-44.09 43 -35.18 43 -26 43 C-26 36.07 -26 29.14 -26 22 C-17.42 22 -8.84 22 0 22 C0 14.74 0 7.48 0 0 Z " fill="#3E8489" transform="translate(388,310)"/>
<path d="M0 0 C17.82 0 35.64 0 54 0 C54 6.93 54 13.86 54 21 C62.58 21 71.16 21 80 21 C80 28.26 80 35.52 80 43 C88.58 43 97.16 43 106 43 C106 49.93 106 56.86 106 64 C88.51 64 71.02 64 53 64 C53 57.07 53 50.14 53 43 C35.51 43 18.02 43 0 43 C0 49.93 0 56.86 0 64 C-17.49 64 -34.98 64 -53 64 C-53 57.07 -53 50.14 -53 43 C-44.42 43 -35.84 43 -27 43 C-27 35.74 -27 28.48 -27 21 C-18.09 21 -9.18 21 0 21 C0 14.07 0 7.14 0 0 Z " fill="#7A7D46" transform="translate(202,143)"/>
<path d="M0 0 C35.31 0 70.62 0 107 0 C107 7.26 107 14.52 107 22 C98.09 22 89.18 22 80 22 C80 28.93 80 35.86 80 43 C75.71 43 71.42 43 67 43 C67 49.93 67 56.86 67 64 C58.09 64 49.18 64 40 64 C40 57.07 40 50.14 40 43 C35.71 43 31.42 43 27 43 C27 36.07 27 29.14 27 22 C18.09 22 9.18 22 0 22 C0 14.74 0 7.48 0 0 Z " fill="#42888D" transform="translate(69,310)"/>
<path d="M0 0 C17.82 0 35.64 0 54 0 C54 6.93 54 13.86 54 21 C53 22 53 22 50.05859375 22.09765625 C46.70572917 22.06510417 43.35286458 22.03255208 40 22 C40 28.93 40 35.86 40 43 C44.29 43 48.58 43 53 43 C53 49.93 53 56.86 53 64 C35.51 64 18.02 64 0 64 C0 57.07 0 50.14 0 43 C4.62 43 9.24 43 14 43 C14 35.74 14 28.48 14 21 C9.38 21 4.76 21 0 21 C0 14.07 0 7.14 0 0 Z " fill="#3D8489" transform="translate(229,310)"/>
<path d="M0 0 C8.91 0 17.82 0 27 0 C27 14.19 27 28.38 27 43 C35.58 43 44.16 43 53 43 C53 49.93 53 56.86 53 64 C35.51 64 18.02 64 0 64 C0 42.88 0 21.76 0 0 Z " fill="#7D8049" transform="translate(69,143)"/>
<path d="M0 0 C0.33 1.32 0.66 2.64 1 4 C2.65 4 4.3 4 6 4 C5.67 4.66 5.34 5.32 5 6 C4.01 6 3.02 6 2 6 C2.0870005 7.62600941 2.1951781 9.25089678 2.3125 10.875 C2.37050781 11.77992188 2.42851562 12.68484375 2.48828125 13.6171875 C2.7882039 16.36221601 2.7882039 16.36221601 6 18 C5 19 5 19 2.6875 19.1875 C-0.0779203 18.9945637 -1.64045051 18.39825155 -4 17 C-3.67 15.68 -3.34 14.36 -3 13 C-4.98 13.33 -6.96 13.66 -9 14 C-9 14.66 -9 15.32 -9 16 C-8.01 16.33 -7.02 16.66 -6 17 C-11.24200843 18.74733614 -15.46867349 19.28125389 -21 19 C-21.66 18.67 -22.32 18.34 -23 18 C-23 16.68 -23 15.36 -23 14 C-22.34 14 -21.68 14 -21 14 C-20.01 15.485 -20.01 15.485 -19 17 C-17.35 16.67 -15.7 16.34 -14 16 C-15.28497537 13.43004926 -16.49912373 13.09565537 -19.0625 11.875 C-20.16271484 11.34519531 -20.16271484 11.34519531 -21.28515625 10.8046875 C-21.85105469 10.53914063 -22.41695313 10.27359375 -23 10 C-22.6875 7.625 -22.6875 7.625 -22 5 C-17.8204355 2.21362367 -15.85331323 3.20437488 -11 4 C-11 4.99 -11 5.98 -11 7 C-10.67 6.34 -10.34 5.68 -10 5 C-8.35 5.33 -6.7 5.66 -5 6 C-5 5.34 -5 4.68 -5 4 C-3.37373596 2.61767557 -1.7074998 1.28062485 0 0 Z " fill="#E5E6E1" transform="translate(383,253)"/>
<path d="M0 0 C17.16 0 34.32 0 52 0 C52 5.94 52 11.88 52 18 C49.69 17.34 47.38 16.68 45 16 C44.95758277 13.66705225 44.95907063 11.33297433 45 9 C45.33 8.67 45.66 8.34 46 8 C45.34 7.34 44.68 6.68 44 6 C44.66 5.01 45.32 4.02 46 3 C35.11 2.01 35.11 2.01 24 1 C24 2.32 24 3.64 24 5 C23.01 5.33 22.02 5.66 21 6 C21 4.68 21 3.36 21 2 C14.73 2 8.46 2 2 2 C2.33 2.66 2.66 3.32 3 4 C3.13943822 8.32258467 3.04355707 11.82577173 2 16 C2.3403125 16.99 2.3403125 16.99 2.6875 18 C3 20 3 20 1.6875 22.25 C-2.33065207 24.86647112 -6.32519585 24.64428391 -11 24 C-13.3125 22.9765625 -13.3125 22.9765625 -15 22 C-15 21.67 -15 21.34 -15 21 C-10.05 21 -5.1 21 0 21 C0 14.07 0 7.14 0 0 Z " fill="#717443" transform="translate(203,144)"/>
<path d="M0 0 C0.99 0 1.98 0 3 0 C4 3 4 3 4 6 C2.68 6 1.36 6 0 6 C0 5.34 0 4.68 0 4 C-1.32 4.33 -2.64 4.66 -4 5 C-4 4.67 -4 4.34 -4 4 C-4.76183594 4.01160156 -5.52367187 4.02320313 -6.30859375 4.03515625 C-22.64417178 4.17791411 -22.64417178 4.17791411 -27 2 C-27 8.27 -27 14.54 -27 21 C-24.03 20.67 -21.06 20.34 -18 20 C-18 19.34 -18 18.68 -18 18 C-13.38 18 -8.76 18 -4 18 C-4 18.33 -4 18.66 -4 19 C-0.02084841 19.02886984 3.95827653 19.04675406 7.9375 19.0625 C9.64196289 19.07506836 9.64196289 19.07506836 11.38085938 19.08789062 C12.46044922 19.09111328 13.54003906 19.09433594 14.65234375 19.09765625 C15.65257568 19.10289307 16.65280762 19.10812988 17.68334961 19.11352539 C19.96207228 19.26181095 19.96207228 19.26181095 21 18 C21.07205511 16.31391034 21.08386068 14.62499341 21.0625 12.9375 C21.05347656 12.01839844 21.04445313 11.09929687 21.03515625 10.15234375 C21.02355469 9.44207031 21.01195312 8.73179687 21 8 C21.66 8 22.32 8 23 8 C23.33 7.01 23.66 6.02 24 5 C24 10.61 24 16.22 24 22 C6.51 22 -10.98 22 -29 22 C-29 15.07 -29 8.14 -29 1 C-26.99035156 1.01160156 -24.98070312 1.02320313 -22.91015625 1.03515625 C-20.97078576 1.0421074 -19.03141497 1.04902396 -17.09204102 1.05493164 C-15.74079614 1.05997057 -14.38955674 1.06680177 -13.03833008 1.07543945 C-11.09979566 1.08752419 -9.161222 1.09269828 -7.22265625 1.09765625 C-6.05484619 1.10289307 -4.88703613 1.10812988 -3.68383789 1.11352539 C-1.08108449 1.30661495 -1.08108449 1.30661495 0 0 Z " fill="#487C7D" transform="translate(364,352)"/>
<path d="M0 0 C0.33 0.33 0.66 0.66 1 1 C4.10435737 1.125405 7.18752496 1.1861327 10.29321289 1.20532227 C11.75646751 1.22017166 11.75646751 1.22017166 13.24928284 1.23532104 C16.49038218 1.26703948 19.73149622 1.29173419 22.97265625 1.31640625 C25.21325574 1.33696686 27.45385127 1.35796308 29.69444275 1.37937927 C35.60455123 1.43469225 41.51469525 1.4840607 47.42486572 1.53222656 C53.45059386 1.5823744 59.47627012 1.63809545 65.50195312 1.69335938 C77.33459114 1.80105372 89.16727412 1.90247348 101 2 C101 2.66 101 3.32 101 4 C65.69 4 30.38 4 -6 4 C-6 10.6 -6 17.2 -6 24 C-6.33 24 -6.66 24 -7 24 C-7.33 18.06 -7.66 12.12 -8 6 C-8.66 6 -9.32 6 -10 6 C-9.67 5.34 -9.34 4.68 -9 4 C-8.67 3.01 -8.34 2.02 -8 1 C-5.26752652 -0.36623674 -3.01801098 -0.128426 0 0 Z " fill="#DAF3F4" transform="translate(75,306)"/>
<path d="M0 0 C2 1 2 1 2.6875 2.5625 C3.14931685 6.16467146 2.5382496 9.41166932 2 13 C2.66 13 3.32 13 4 13 C4 14.32 4 15.64 4 17 C4.66 17.33 5.32 17.66 6 18 C5.67 18.66 5.34 19.32 5 20 C4.34 20 3.68 20 3 20 C3 20.99 3 21.98 3 23 C0.52729976 24.23635012 -1.11166572 24.12693785 -3.87695312 24.12939453 C-5.39863098 24.13412277 -5.39863098 24.13412277 -6.9510498 24.13894653 C-8.05001587 24.1369223 -9.14898193 24.13489807 -10.28125 24.1328125 C-11.40567505 24.13376923 -12.5301001 24.13472595 -13.68859863 24.13571167 C-16.06925513 24.13639308 -18.44991347 24.13454149 -20.83056641 24.13037109 C-24.48474278 24.12502233 -28.13879623 24.13031742 -31.79296875 24.13671875 C-34.10156277 24.13605796 -36.41015672 24.13477679 -38.71875 24.1328125 C-39.81771606 24.13483673 -40.91668213 24.13686096 -42.0489502 24.13894653 C-43.0634021 24.13579437 -44.077854 24.13264221 -45.12304688 24.12939453 C-46.01858276 24.12859894 -46.91411865 24.12780334 -47.83679199 24.12698364 C-50 24 -50 24 -52 23 C-52 22.34 -52 21.68 -52 21 C-34.84 21 -17.68 21 0 21 C0 14.07 0 7.14 0 0 Z " fill="#D6EDEC" transform="translate(282,353)"/>
<path d="M0 0 C0.9583374 0.00523682 1.9166748 0.01047363 2.90405273 0.01586914 C4.45576172 0.02070313 4.45576172 0.02070313 6.03881836 0.02563477 C7.12743164 0.03401367 8.21604492 0.04239258 9.33764648 0.05102539 C10.97636719 0.05779297 10.97636719 0.05779297 12.64819336 0.06469727 C15.35723144 0.07652713 18.06616248 0.09300996 20.77514648 0.11352539 C22.09743838 2.75810918 21.87191843 4.7911384 21.83764648 7.73852539 C21.82862305 8.74141602 21.81959961 9.74430664 21.81030273 10.77758789 C21.79870117 11.54844727 21.78709961 12.31930664 21.77514648 13.11352539 C22.43514648 13.11352539 23.09514648 13.11352539 23.77514648 13.11352539 C23.77514648 13.77352539 23.77514648 14.43352539 23.77514648 15.11352539 C21.46514648 15.11352539 19.15514648 15.11352539 16.77514648 15.11352539 C17.10514648 10.82352539 17.43514648 6.53352539 17.77514648 2.11352539 C16.12514648 2.77352539 14.47514648 3.43352539 12.77514648 4.11352539 C12.74814219 5.57175751 12.72874862 7.03013214 12.71264648 8.48852539 C12.70104492 9.30063477 12.68944336 10.11274414 12.67749023 10.94946289 C12.63048314 13.16289681 12.63048314 13.16289681 13.77514648 15.11352539 C11.46514648 15.11352539 9.15514648 15.11352539 6.77514648 15.11352539 C7.10514648 14.45352539 7.43514648 13.79352539 7.77514648 13.11352539 C7.84510662 11.40649804 7.85954802 9.69684536 7.83764648 7.98852539 C7.82862305 7.07844727 7.81959961 6.16836914 7.81030273 5.23071289 C7.79870117 4.53204102 7.78709961 3.83336914 7.77514648 3.11352539 C6.12514648 3.44352539 4.47514648 3.77352539 2.77514648 4.11352539 C2.74814219 5.57175751 2.72874862 7.03013214 2.71264648 8.48852539 C2.70104492 9.30063477 2.68944336 10.11274414 2.67749023 10.94946289 C2.63048314 13.16289681 2.63048314 13.16289681 3.77514648 15.11352539 C1.46514648 15.11352539 -0.84485352 15.11352539 -3.22485352 15.11352539 C-2.89485352 14.45352539 -2.56485352 13.79352539 -2.22485352 13.11352539 C-1.99735201 11.24295748 -1.81522541 9.36666581 -1.66235352 7.48852539 C-1.57856445 6.48563477 -1.49477539 5.48274414 -1.40844727 4.44946289 C-1.34786133 3.67860352 -1.28727539 2.90774414 -1.22485352 2.11352539 C-1.88485352 1.78352539 -2.54485352 1.45352539 -3.22485352 1.11352539 C-2.22485352 0.11352539 -2.22485352 0.11352539 0 0 Z " fill="#565752" transform="translate(232.224853515625,256.886474609375)"/>
<path d="M0 0 C3.63 0 7.26 0 11 0 C10.67 0.99 10.34 1.98 10 3 C7.36 3.33 4.72 3.66 2 4 C2.33 4.99 2.66 5.98 3 7 C3.0685495 8.89470816 3.08480372 10.7916834 3.0625 12.6875 C3.05347656 13.68136719 3.04445312 14.67523438 3.03515625 15.69921875 C3.02355469 16.45847656 3.01195312 17.21773438 3 18 C16.47263777 20.24543963 30.44638374 18.93935954 44 18 C44 18.66 44 19.32 44 20 C46.97 19.34 49.94 18.68 53 18 C53 18.99 53 19.98 53 21 C35.51 21 18.02 21 0 21 C0 14.07 0 7.14 0 0 Z " fill="#4B7C80" transform="translate(229,353)"/>
<path d="M0 0 C0.33 0 0.66 0 1 0 C1 7.26 1 14.52 1 22 C-7.58 22 -16.16 22 -25 22 C-25 28.93 -25 35.86 -25 43 C-33.91 43 -42.82 43 -52 43 C-52 42.67 -52 42.34 -52 42 C-43.42 42 -34.84 42 -26 42 C-26.1975295 35.22298998 -26.1975295 35.22298998 -26.45043945 28.44799805 C-26.55111653 21.63378401 -26.55111653 21.63378401 -24.125 18.84375 C-19.60641575 17.62373225 -15.3435738 17.68417005 -10.6875 17.8125 C-9.29047852 17.83280273 -9.29047852 17.83280273 -7.86523438 17.85351562 C-5.57622354 17.88873118 -3.28841542 17.93797901 -1 18 C-1.01160156 17.20335937 -1.02320313 16.40671875 -1.03515625 15.5859375 C-1.12478032 5.06151142 -1.12478032 5.06151142 0 0 Z " fill="#BCD8D8" transform="translate(387,310)"/>
<path d="M0 0 C0.33 4.29 0.66 8.58 1 13 C2.32 12.01 3.64 11.02 5 10 C4.67 9.34 4.34 8.68 4 8 C6.31 8 8.62 8 11 8 C10.175 8.5775 9.35 9.155 8.5 9.75 C7.675 10.4925 6.85 11.235 6 12 C6 16.36795404 6.22762148 16.74658993 9 19.75 C9.556875 20.36359375 10.11375 20.9771875 10.6875 21.609375 C11.120625 22.06828125 11.55375 22.5271875 12 23 C9.875 23.375 9.875 23.375 7 23 C4.76086748 21.20659643 2.87545461 19.16547337 1 17 C0.67 18.65 0.34 20.3 0 22 C0.66 22.33 1.32 22.66 2 23 C-0.64 23 -3.28 23 -6 23 C-6 22.34 -6 21.68 -6 21 C-5.34 21 -4.68 21 -4 21 C-4.14046255 18.04132082 -4.28712224 15.08317736 -4.4375 12.125 C-4.47681641 11.28324219 -4.51613281 10.44148438 -4.55664062 9.57421875 C-4.59853516 8.76855469 -4.64042969 7.96289062 -4.68359375 7.1328125 C-4.73858032 6.01737061 -4.73858032 6.01737061 -4.79467773 4.87939453 C-4.89955865 2.91135688 -4.89955865 2.91135688 -6 1 C-4 0 -4 0 0 0 Z " fill="#62635E" transform="translate(212,249)"/>
<path d="M0 0 C8.91 0 17.82 0 27 0 C27 6.93 27 13.86 27 21 C35.91 21 44.82 21 54 21 C54 28.26 54 35.52 54 43 C53.67 43 53.34 43 53 43 C53 36.07 53 29.14 53 22 C38.645 22.495 38.645 22.495 24 23 C24.33 21.02 24.66 19.04 25 17 C25.04063832 15.33382885 25.042721 13.66611905 25 12 C24.89841481 8.03817749 25.32275079 5.06349523 26 1 C17.75 1 9.5 1 1 1 C1 7.93 1 14.86 1 22 C-7.91 22 -16.82 22 -26 22 C-26 21.67 -26 21.34 -26 21 C-17.42 21 -8.84 21 0 21 C0 14.07 0 7.14 0 0 Z " fill="#9D9E7F" transform="translate(440,143)"/>
<path d="M0 0 C2.0078125 0.328125 2.0078125 0.328125 3.75390625 1.51953125 C5.44420471 3.95756298 5.30972595 5.5790131 5.1953125 8.515625 C5.16824219 9.41667969 5.14117187 10.31773437 5.11328125 11.24609375 C5.07847656 11.93316406 5.04367188 12.62023437 5.0078125 13.328125 C5.6678125 13.658125 6.3278125 13.988125 7.0078125 14.328125 C3.99749506 15.26236145 3.14130982 15.37262411 0.0078125 14.328125 C-1.755625 14.6065625 -1.755625 14.6065625 -3.5546875 14.890625 C-4.6890625 15.035 -5.8234375 15.179375 -6.9921875 15.328125 C-7.6521875 14.668125 -8.3121875 14.008125 -8.9921875 13.328125 C-8.9921875 11.453125 -8.9921875 11.453125 -7.9921875 9.328125 C-2.88107639 5.328125 -2.88107639 5.328125 1.0078125 5.328125 C0.6778125 4.338125 0.3478125 3.348125 0.0078125 2.328125 C-2.00727108 1.59488704 -2.00727108 1.59488704 -3.9921875 1.328125 C-3.9921875 2.648125 -3.9921875 3.968125 -3.9921875 5.328125 C-5.3121875 5.328125 -6.6321875 5.328125 -7.9921875 5.328125 C-6.76176005 -0.12091087 -5.63631991 0.20798228 0 0 Z " fill="#656661" transform="translate(193.9921875,256.671875)"/>
<path d="M0 0 C1.20462891 -0.02126953 1.20462891 -0.02126953 2.43359375 -0.04296875 C4.5625 0.1875 4.5625 0.1875 6.5625 2.1875 C6.7578125 4.7890625 6.7578125 4.7890625 6.6875 7.8125 C6.66945313 8.81539063 6.65140625 9.81828125 6.6328125 10.8515625 C6.59800781 12.00785156 6.59800781 12.00785156 6.5625 13.1875 C7.5525 13.5175 8.5425 13.8475 9.5625 14.1875 C3.98509303 15.42692377 -0.814327 15.05260354 -6.4375 14.1875 C-6.6875 11.875 -6.6875 11.875 -6.4375 9.1875 C-4.01667355 6.76667355 -1.78239996 5.78480356 1.5625 5.1875 C1.8925 3.8675 2.2225 2.5475 2.5625 1.1875 C0.9125 1.1875 -0.7375 1.1875 -2.4375 1.1875 C-2.4375 2.5075 -2.4375 3.8275 -2.4375 5.1875 C-3.7575 5.1875 -5.0775 5.1875 -6.4375 5.1875 C-5.37461845 0.48045312 -4.84920871 0.03879367 0 0 Z " fill="#51524D" transform="translate(402.4375,256.8125)"/>
<path d="M0 0 C2 2 2 2 2.046875 5.00390625 C1.94890625 6.17824219 1.8509375 7.35257812 1.75 8.5625 C1.61851562 10.32787109 1.61851562 10.32787109 1.484375 12.12890625 C1.24460937 13.55009766 1.24460937 13.55009766 1 15 C0.01 15.495 0.01 15.495 -1 16 C-1 16.66 -1 17.32 -1 18 C-0.46375 17.9278125 0.0725 17.855625 0.625 17.78125 C15.67415606 15.9991131 30.91936972 17.17294093 46 18 C46.33 15.36 46.66 12.72 47 10 C49.05164237 13.46214649 49 14.59389235 49 19 C31.84 19 14.68 19 -3 19 C-3 13.39 -3 7.78 -3 2 C-2.01 2 -1.02 2 0 2 C0 1.34 0 0.68 0 0 Z " fill="#427576" transform="translate(471,355)"/>
<path d="M0 0 C11.55 0.33 23.1 0.66 35 1 C35 1.33 35 1.66 35 2 C32.36 2 29.72 2 27 2 C27 2.66 27 3.32 27 4 C40.365 4.495 40.365 4.495 54 5 C54 5.33 54 5.66 54 6 C36.18 6 18.36 6 0 6 C0 4.02 0 2.04 0 0 Z " fill="#DDEBE9" transform="translate(229,304)"/>
<path d="M0 0 C2.31 0 4.62 0 7 0 C8.98 4.62 10.96 9.24 13 14 C13.99 14 14.98 14 16 14 C15.48967606 17.77639718 14.79233071 19.44722581 12 22 C10.82592979 19.73272667 9.66060261 17.46165376 8.5 15.1875 C8.16613281 14.54490234 7.83226562 13.90230469 7.48828125 13.24023438 C5.99760916 10.30452301 5 8.33873483 5 5 C4.34 5 3.68 5 3 5 C3 9.95 3 14.9 3 20 C3.66 20 4.32 20 5 20 C5 20.66 5 21.32 5 22 C2.36 22 -0.28 22 -3 22 C-2.67 21.34 -2.34 20.68 -2 20 C-1.34 20 -0.68 20 0 20 C0.66 13.73 1.32 7.46 2 1 C1.34 0.67 0.68 0.34 0 0 Z " fill="#535451" transform="translate(150,250)"/>
<path d="M0 0 C33.99 0 67.98 0 103 0 C103 0.33 103 0.66 103 1 C101.16503464 1.01213028 101.16503464 1.01213028 99.29299927 1.02450562 C87.7855023 1.10186445 76.27812506 1.18957742 64.77078438 1.28752708 C58.85421231 1.33755304 52.93765864 1.38388238 47.02099609 1.421875 C41.31510082 1.45864837 35.60935726 1.50498634 29.90359116 1.55806351 C27.72264126 1.57664984 25.54165879 1.59174198 23.36066055 1.60334396 C20.31466255 1.62013407 17.26901525 1.64915116 14.22314453 1.68115234 C13.31396271 1.68331253 12.40478088 1.68547272 11.4680481 1.68769836 C6.74979161 1.52142091 6.74979161 1.52142091 3 4 C1.6163767 8.56595691 1.90741528 13.27817937 2 18 C1.34 18 0.68 18 0 18 C0 12.06 0 6.12 0 0 Z " fill="#3A7176" transform="translate(70,311)"/>
<path d="M0 0 C1.98 0 3.96 0 6 0 C6 3.96 6 7.92 6 12 C7.65 11.67 9.3 11.34 11 11 C11 7.37 11 3.74 11 0 C12.65 0 14.3 0 16 0 C16 4.29 16 8.58 16 13 C16.66 13.33 17.32 13.66 18 14 C16.35 14.33 14.7 14.66 13 15 C13 14.34 13 13.68 13 13 C12.443125 13.33 11.88625 13.66 11.3125 14 C8.62849816 15.16064945 6.89460562 15.38086916 4 15 C1.79086 11.68629 1.77518447 10.6553979 1.875 6.8125 C1.89304687 5.91144531 1.91109375 5.01039063 1.9296875 4.08203125 C1.95289063 3.39496094 1.97609375 2.70789063 2 2 C1.34 2 0.68 2 0 2 C0 1.34 0 0.68 0 0 Z " fill="#646560" transform="translate(261,257)"/>
<path d="M0 0 C0.99 0.66 1.98 1.32 3 2 C3 3.32 3 4.64 3 6 C-0.63 6 -4.26 6 -8 6 C-7.34 7.65 -6.68 9.3 -6 11 C-1.34947128 11.26932521 -1.34947128 11.26932521 3 10 C1.25 13.875 1.25 13.875 -1 15 C-7.36842105 15.46315789 -7.36842105 15.46315789 -9.875 13.625 C-12.16466729 10.31770281 -12.40162165 8.01621646 -12 4 C-8.86349532 -0.96613241 -5.37252087 -0.51166865 0 0 Z " fill="#595A55" transform="translate(351,257)"/>
<path d="M0 0 C3.3 0 6.6 0 10 0 C9.34 0.66 8.68 1.32 8 2 C7.63168919 3.93257855 7.63168919 3.93257855 7.5859375 6.1328125 C7.54726563 6.93847656 7.50859375 7.74414062 7.46875 8.57421875 C7.4378125 9.41597656 7.406875 10.25773437 7.375 11.125 C7.33632813 11.97449219 7.29765625 12.82398438 7.2578125 13.69921875 C7.16343506 15.79911684 7.08062414 17.89952891 7 20 C8.60495567 19.88557539 10.20898119 19.75805306 11.8125 19.625 C12.70582031 19.55539062 13.59914063 19.48578125 14.51953125 19.4140625 C17.24398499 19.13354964 17.24398499 19.13354964 20 17 C20 18.65 20 20.3 20 22 C13.4 22 6.8 22 0 22 C0 21.34 0 20.68 0 20 C0.99 20 1.98 20 3 20 C3 13.73 3 7.46 3 1 C2.01 0.67 1.02 0.34 0 0 Z " fill="#52534F" transform="translate(313,250)"/>
<path d="M0 0 C0.99 0.66 1.98 1.32 3 2 C3.66 2 4.32 2 5 2 C5 3.65 5 5.3 5 7 C5.99 7 6.98 7 8 7 C7.34 6.67 6.68 6.34 6 6 C6 2 6 2 8 0 C8.66 0.33 9.32 0.66 10 1 C10 4.63 10 8.26 10 12 C9.01 12.495 9.01 12.495 8 13 C8 12.34 8 11.68 8 11 C7.34 11 6.68 11 6 11 C6 11.66 6 12.32 6 13 C5.01 13.33 4.02 13.66 3 14 C0.36 11.36 -2.28 8.72 -5 6 C-3 2 -3 2 0 0 Z M3 7 C2.67 7.66 2.34 8.32 2 9 C2.66 9 3.32 9 4 9 C3.67 8.34 3.34 7.68 3 7 Z " fill="#ECEDE8" transform="translate(221,258)"/>
<path d="M0 0 C12.87 0 25.74 0 39 0 C39 0.33 39 0.66 39 1 C26.79 1 14.58 1 2 1 C2 6.94 2 12.88 2 19 C3.44375 18.855625 4.8875 18.71125 6.375 18.5625 C7.18710938 18.48128906 7.99921875 18.40007812 8.8359375 18.31640625 C11.04272805 18.10909886 11.04272805 18.10909886 13 17 C15.125 17.9375 15.125 17.9375 17 19 C16.34 19 15.68 19 15 19 C15 26.26 15 33.52 15 41 C14.67 41 14.34 41 14 41 C14 34.07 14 27.14 14 20 C9.38 20 4.76 20 0 20 C0 13.4 0 6.8 0 0 Z " fill="#437477" transform="translate(229,311)"/>
<path d="M0 0 C8.91 0 17.82 0 27 0 C28.23759823 3.71279469 28.35608897 7.31306346 28.5625 11.1875 C28.60568359 11.93708984 28.64886719 12.68667969 28.69335938 13.45898438 C28.79922685 15.30578375 28.9000976 17.15286834 29 19 C30.98 19 32.96 19 35 19 C35 19.66 35 20.32 35 21 C36.41702513 20.85769192 37.8336096 20.71099254 39.25 20.5625 C40.03890625 20.48128906 40.8278125 20.40007812 41.640625 20.31640625 C43.9987921 20.05128191 43.9987921 20.05128191 46.234375 19.40234375 C47.10835938 19.20318359 47.10835938 19.20318359 48 19 C48.33 19.33 48.66 19.66 49 20 C50.67542976 19.71395102 52.34385343 19.38218767 54 19 C54 19.66 54 20.32 54 21 C50.72373625 21.9821994 47.77211881 22.11580914 44.359375 22.09765625 C43.28945313 22.09443359 42.21953125 22.09121094 41.1171875 22.08789062 C40.00601563 22.07951172 38.89484375 22.07113281 37.75 22.0625 C36.06003906 22.05573242 36.06003906 22.05573242 34.3359375 22.04882812 C31.55726894 22.03705411 28.77862773 22.019119 26 22 C26 15.07 26 8.14 26 1 C17.42 1 8.84 1 0 1 C0 0.67 0 0.34 0 0 Z " fill="#C6DEDF" transform="translate(441,309)"/>
<path d="M0 0 C1.98 0 3.96 0 6 0 C5.01 0.495 5.01 0.495 4 1 C4.66 7.27 5.32 13.54 6 20 C6.66 20 7.32 20 8 20 C8 20.66 8 21.32 8 22 C5.03 22 2.06 22 -1 22 C-1 21.34 -1 20.68 -1 20 C-0.01 20 0.98 20 2 20 C1.835 19.195625 1.67 18.39125 1.5 17.5625 C0.90752652 13.34112648 0.91493291 9.25335455 1 5 C0.34 5 -0.32 5 -1 5 C-1.12375 5.7425 -1.2475 6.485 -1.375 7.25 C-1.95486701 9.80141485 -2.73708739 11.7267573 -4 14 C-5.305239 10.08428299 -4.32239848 8.96107003 -2.5625 5.3125 C-2.08941406 4.31863281 -1.61632812 3.32476562 -1.12890625 2.30078125 C-0.75636719 1.54152344 -0.38382813 0.78226563 0 0 Z " fill="#545551" transform="translate(171,250)"/>
<path d="M0 0 C7.26 0 14.52 0 22 0 C22 7.59 22 15.18 22 23 C21.34 22.67 20.68 22.34 20 22 C19.11817545 17.19004792 18.9683106 13.77156345 20 9 C19.7033526 7.32641427 19.37394951 5.65802613 19 4 C17.78441406 4.01160156 16.56882812 4.02320313 15.31640625 4.03515625 C13.73177236 4.04453278 12.14713682 4.05363313 10.5625 4.0625 C9.76005859 4.07087891 8.95761719 4.07925781 8.13085938 4.08789062 C6.08704779 4.0965143 4.04316098 4.0522815 2 4 C1.67 3.67 1.34 3.34 1 3 C0.01 2.67 -0.98 2.34 -2 2 C-1.34 2 -0.68 2 0 2 C0 1.34 0 0.68 0 0 Z " fill="#E0F3F2" transform="translate(445,353)"/>
<path d="M0 0 C8.58 0 17.16 0 26 0 C26 5.94 26 11.88 26 18 C25.67 18 25.34 18 25 18 C25 12.72 25 7.44 25 2 C18.07 2 11.14 2 4 2 C3.34 7.61 2.68 13.22 2 19 C1.34 19 0.68 19 0 19 C0 12.73 0 6.46 0 0 Z " fill="#45777B" transform="translate(441,310)"/>
<path d="M0 0 C16.5 0 33 0 50 0 C50 0.66 50 1.32 50 2 C37.15859134 2.67853597 24.35616609 3.23173932 11.5 2.6875 C10.56978027 2.65277588 9.63956055 2.61805176 8.68115234 2.58227539 C7.82730957 2.5383667 6.9734668 2.49445801 6.09375 2.44921875 C5.34802734 2.41143311 4.60230469 2.37364746 3.83398438 2.3347168 C2 2 2 2 0 0 Z " fill="#DAF3F3" transform="translate(335,374)"/>
<path d="M0 0 C0.91007812 0.00902344 1.82015625 0.01804687 2.7578125 0.02734375 C3.45648438 0.03894531 4.15515625 0.05054688 4.875 0.0625 C4.875 1.3825 4.875 2.7025 4.875 4.0625 C2.895 5.0525 2.895 5.0525 0.875 6.0625 C0.545 5.7325 0.215 5.4025 -0.125 5.0625 C-0.455 8.0325 -0.785 11.0025 -1.125 14.0625 C-0.465 14.3925 0.195 14.7225 0.875 15.0625 C-2.095 15.0625 -5.065 15.0625 -8.125 15.0625 C-7.795 14.4025 -7.465 13.7425 -7.125 13.0625 C-7.05434383 11.02194995 -7.04078024 8.97915743 -7.0625 6.9375 C-7.07152344 5.84179688 -7.08054687 4.74609375 -7.08984375 3.6171875 C-7.10144531 2.77414062 -7.11304688 1.93109375 -7.125 1.0625 C-4.60024538 -0.19987731 -2.81299534 -0.03606404 0 0 Z " fill="#747472" transform="translate(424.125,256.9375)"/>
<path d="M0 0 C-0.33 1.32 -0.66 2.64 -1 4 C-1.66 3.34 -2.32 2.68 -3 2 C-5.57061311 1.35232207 -5.57061311 1.35232207 -8 1 C-7.33029489 4.06399866 -7.33029489 4.06399866 -5.15234375 5.16796875 C-4.42144531 5.50441406 -3.69054687 5.84085937 -2.9375 6.1875 C-2.20402344 6.53167969 -1.47054688 6.87585938 -0.71484375 7.23046875 C-0.14894531 7.48441406 0.41695313 7.73835938 1 8 C0.625 10.9375 0.625 10.9375 0 14 C-2.24512262 15.12256131 -3.51456649 15.13413762 -6 15.125 C-7.051875 15.12886719 -7.051875 15.12886719 -8.125 15.1328125 C-10 15 -10 15 -12 14 C-12 12.68 -12 11.36 -12 10 C-11.34 10 -10.68 10 -10 10 C-9.01 11.485 -9.01 11.485 -8 13 C-6.35 12.67 -4.7 12.34 -3 12 C-4.28497537 9.43004926 -5.49912373 9.09565537 -8.0625 7.875 C-9.16271484 7.34519531 -9.16271484 7.34519531 -10.28515625 6.8046875 C-10.85105469 6.53914063 -11.41695313 6.27359375 -12 6 C-11.6875 3.625 -11.6875 3.625 -11 1 C-6.8204355 -1.78637633 -4.85331323 -0.79562512 0 0 Z " fill="#63645F" transform="translate(372,257)"/>
<path d="M0 0 C8.58 0 17.16 0 26 0 C26 2.97 26 5.94 26 9 C25.34 8.67 24.68 8.34 24 8 C24 6.02 24 4.04 24 2 C23.0925 2.33 22.185 2.66 21.25 3 C18 4 18 4 14 4 C14 3.34 14 2.68 14 2 C13.37351562 2.15597656 12.74703125 2.31195313 12.1015625 2.47265625 C11.28429687 2.66730469 10.46703125 2.86195313 9.625 3.0625 C8.40683594 3.35833984 8.40683594 3.35833984 7.1640625 3.66015625 C5 4 5 4 3 3 C2.67 6.63 2.34 10.26 2 14 C1.34 14 0.68 14 0 14 C0 9.38 0 4.76 0 0 Z " fill="#71774E" transform="translate(388,143)"/>
<path d="M0 0 C5.94 0 11.88 0 18 0 C18 0.33 18 0.66 18 1 C10.08 1.495 10.08 1.495 2 2 C2.01047363 3.52923096 2.02094727 5.05846191 2.03173828 6.6340332 C2.06788746 12.29758369 2.09088201 17.96112394 2.10986328 23.62475586 C2.11993245 26.07789829 2.13358861 28.53102869 2.15087891 30.98413086 C2.17508679 34.50637783 2.18647388 38.02846639 2.1953125 41.55078125 C2.20563507 42.65086014 2.21595764 43.75093903 2.22659302 44.88435364 C2.22674408 45.90518539 2.22689514 46.92601715 2.22705078 47.9777832 C2.231492 48.87713089 2.23593323 49.77647858 2.24050903 50.70307922 C2 53 2 53 0 56 C0 37.52 0 19.04 0 0 Z " fill="#6B7043" transform="translate(70,144)"/>
<path d="M0 0 C0.33 0 0.66 0 1 0 C1.19916016 1.24716797 1.19916016 1.24716797 1.40234375 2.51953125 C1.57894531 3.60621094 1.75554687 4.69289062 1.9375 5.8125 C2.11152344 6.89144531 2.28554687 7.97039062 2.46484375 9.08203125 C2.93871921 12.04933356 2.93871921 12.04933356 4 15 C3.34 15 2.68 15 2 15 C2 17.31 2 19.62 2 22 C-16.15 22 -34.3 22 -53 22 C-53 21.67 -53 21.34 -53 21 C-35.51 21 -18.02 21 0 21 C0 14.07 0 7.14 0 0 Z " fill="#D7D9BA" transform="translate(202,186)"/>
<path d="M0 0 C0.33 -0.33 0.66 -0.66 1 -1 C2.66617115 -1.04063832 4.33388095 -1.042721 6 -1 C6 -0.01 6 0.98 6 2 C4.7934375 1.9690625 4.7934375 1.9690625 3.5625 1.9375 C1.06645115 1.70366379 1.06645115 1.70366379 0 3 C-0.23192865 4.51469448 -0.41215238 6.03754562 -0.5625 7.5625 C-0.64628906 8.38878906 -0.73007812 9.21507812 -0.81640625 10.06640625 C-0.87699219 10.70449219 -0.93757813 11.34257812 -1 12 C-0.01 12.33 0.98 12.66 2 13 C2 13.33 2 13.66 2 14 C-0.97 14 -3.94 14 -7 14 C-6.67 13.34 -6.34 12.68 -6 12 C-5.7724985 10.12943209 -5.59037189 8.25314042 -5.4375 6.375 C-5.35371094 5.37210937 -5.26992188 4.36921875 -5.18359375 3.3359375 C-5.12300781 2.56507813 -5.06242187 1.79421875 -5 1 C-5.66 0.67 -6.32 0.34 -7 0 C-4.3351451 -1.33242745 -2.85216588 -0.58505967 0 0 Z " fill="#63645F" transform="translate(291,258)"/>
<path d="M0 0 C0.33 0 0.66 0 1 0 C1 7.26 1 14.52 1 22 C-7.25 22 -15.5 22 -24 22 C-24 17.05 -24 12.1 -24 7 C-23.67 7 -23.34 7 -23 7 C-23 11.29 -23 15.58 -23 20 C-12.605 19.505 -12.605 19.505 -2 19 C-0.3501993 15.70039859 -0.61741639 12.00872116 -0.4375 8.375 C-0.39431641 7.57320313 -0.35113281 6.77140625 -0.30664062 5.9453125 C-0.20048543 3.9637489 -0.09973145 1.98189729 0 0 Z " fill="#3F7674" transform="translate(439,352)"/>
<path d="M0 0 C0.33 1.32 0.66 2.64 1 4 C2.65 4 4.3 4 6 4 C5.67 4.66 5.34 5.32 5 6 C4.01 6 3.02 6 2 6 C2.0870005 7.62600941 2.1951781 9.25089678 2.3125 10.875 C2.37050781 11.77992188 2.42851562 12.68484375 2.48828125 13.6171875 C2.7882039 16.36221601 2.7882039 16.36221601 6 18 C5 19 5 19 2.5625 19.1875 C0 19 0 19 -2 17 C-2.1953125 14.1796875 -2.1953125 14.1796875 -2.125 10.875 C-2.10695313 9.77929688 -2.08890625 8.68359375 -2.0703125 7.5546875 C-2.04710937 6.71164062 -2.02390625 5.86859375 -2 5 C-2.66 4.67 -3.32 4.34 -4 4 C-2.68 2.68 -1.36 1.36 0 0 Z " fill="#4D4E49" transform="translate(383,253)"/>
<path d="M0 0 C16.5 0 33 0 50 0 C50 0.33 50 0.66 50 1 C41.42 1 32.84 1 24 1 C24 2.32 24 3.64 24 5 C23.01 5.33 22.02 5.66 21 6 C21 4.68 21 3.36 21 2 C20.15236084 2.01571045 20.15236084 2.01571045 19.28759766 2.03173828 C16.73344347 2.07324788 14.17936018 2.0993096 11.625 2.125 C10.73554688 2.14175781 9.84609375 2.15851563 8.9296875 2.17578125 C8.07890625 2.18222656 7.228125 2.18867188 6.3515625 2.1953125 C5.17327881 2.21102295 5.17327881 2.21102295 3.97119141 2.22705078 C2 2 2 2 0 0 Z " fill="#6B6E3C" transform="translate(203,144)"/>
<path d="M0 0 C2.625 0.375 2.625 0.375 5 1 C5.05395478 2.62463842 5.09277195 4.24978541 5.125 5.875 C5.14820313 6.77992188 5.17140625 7.68484375 5.1953125 8.6171875 C5 11 5 11 3 13 C-0.53571429 12.46428571 -0.53571429 12.46428571 -2 11 C-2.16796875 9.00390625 -2.16796875 9.00390625 -2.1875 6.5625 C-2.20167969 5.75941406 -2.21585938 4.95632813 -2.23046875 4.12890625 C-2 2 -2 2 0 0 Z " fill="#E2E3DE" transform="translate(236,259)"/>
<path d="M0 0 C0.66 0 1.32 0 2 0 C1.67 1.32 1.34 2.64 1 4 C1.52078125 3.82726562 2.0415625 3.65453125 2.578125 3.4765625 C5.74102914 2.85418459 8.53623653 3.11982994 11.75 3.375 C13.06613281 3.47425781 14.38226563 3.57351562 15.73828125 3.67578125 C16.43002441 3.72943848 17.12176758 3.7830957 17.83447266 3.83837891 C21.53328207 4.11443435 25.23534478 4.33663686 28.9375 4.5625 C30.30078701 4.64704251 31.6640688 4.73166949 33.02734375 4.81640625 C34.49880859 4.90728516 34.49880859 4.90728516 36 5 C36 5.33 36 5.66 36 6 C30.62485095 6.04935509 25.24983315 6.08569802 19.87451172 6.10986328 C18.04506127 6.11993484 16.21562697 6.13359276 14.38623047 6.15087891 C11.76005066 6.17507677 9.13408325 6.18647132 6.5078125 6.1953125 C5.27649094 6.21079636 5.27649094 6.21079636 4.02029419 6.22659302 C2.01210858 6.22699184 0.00444618 6.1224954 -2 6 C-2.66 5.34 -3.32 4.68 -4 4 C-3.67 3.34 -3.34 2.68 -3 2 C-2.01 2 -1.02 2 0 2 C0 1.34 0 0.68 0 0 Z " fill="#E9ECD9" transform="translate(204,137)"/>
<path d="M0 0 C4.95 0 9.9 0 15 0 C15.33 0.99 15.66 1.98 16 3 C15.24074219 2.91621094 14.48148437 2.83242188 13.69921875 2.74609375 C12.70535156 2.64425781 11.71148437 2.54242188 10.6875 2.4375 C9.70136719 2.33308594 8.71523438 2.22867187 7.69921875 2.12109375 C4.90069653 1.83397473 4.90069653 1.83397473 2 3 C2 8.28 2 13.56 2 19 C5.63 19 9.26 19 13 19 C13 19.33 13 19.66 13 20 C8.71 20 4.42 20 0 20 C0 13.4 0 6.8 0 0 Z " fill="#E4F7F4" transform="translate(269,332)"/>
<path d="M0 0 C0 0.99 0 1.98 0 3 C-6.44552385 4.02611524 -12.49666695 3.95269998 -19 3.5625 C-20.44826172 3.48418945 -20.44826172 3.48418945 -21.92578125 3.40429688 C-24.28420776 3.27586771 -26.64216241 3.13882196 -29 3 C-29 8.94 -29 14.88 -29 21 C-29.33 21 -29.66 21 -30 21 C-30 14.4 -30 7.8 -30 1 C-25.75003506 0.83239575 -21.50003241 0.66587679 -17.25 0.5 C-16.0434375 0.45230469 -14.836875 0.40460938 -13.59375 0.35546875 C-11.85351562 0.28779297 -11.85351562 0.28779297 -10.078125 0.21875 C-8.47565918 0.1559082 -8.47565918 0.1559082 -6.84082031 0.09179688 C-4.56153124 0.01814505 -2.28047873 0 0 0 Z " fill="#3E757A" transform="translate(392,331)"/>
<path d="M0 0 C1.32229189 2.64458379 1.09677194 4.67761301 1.0625 7.625 C1.05347656 8.62789063 1.04445312 9.63078125 1.03515625 10.6640625 C1.02355469 11.43492187 1.01195312 12.20578125 1 13 C1.66 13 2.32 13 3 13 C3 13.66 3 14.32 3 15 C0.69 15 -1.62 15 -4 15 C-3.67 10.71 -3.34 6.42 -3 2 C-4.98 2.66 -6.96 3.32 -9 4 C-9.33 3.01 -9.66 2.02 -10 1 C-6.52674819 -0.1577506 -3.63932552 -0.06866652 0 0 Z " fill="#797A75" transform="translate(253,257)"/>
<path d="M0 0 C0.66 0 1.32 0 2 0 C3.05881632 2.26419196 4.09702932 4.53435538 5.125 6.8125 C5.57939453 7.77639648 5.57939453 7.77639648 6.04296875 8.75976562 C6.8828125 10.64453125 6.8828125 10.64453125 8 14 C7.01 15.485 7.01 15.485 6 17 C6 16.34 6 15.68 6 15 C4.02 15.99 4.02 15.99 2 17 C2 16.34 2 15.68 2 15 C1.34 15 0.68 15 0 15 C0 10.05 0 5.1 0 0 Z " fill="#E4E5E0" transform="translate(153,255)"/>
<path d="M0 0 C0.22671387 0.64291992 0.45342773 1.28583984 0.68701172 1.94824219 C1.81924065 4.21698106 1.81924065 4.21698106 4.24658203 4.63769531 C5.15778809 4.70053711 6.06899414 4.76337891 7.0078125 4.828125 C8.48701172 4.94414062 8.48701172 4.94414062 9.99609375 5.0625 C11.02863281 5.124375 12.06117188 5.18625 13.125 5.25 C14.16527344 5.32734375 15.20554687 5.4046875 16.27734375 5.484375 C18.85084633 5.67325592 21.42430816 5.8443576 24 6 C24 6.33 24 6.66 24 7 C15.42 7 6.84 7 -2 7 C-2 13.93 -2 20.86 -2 28 C-2.33 28 -2.66 28 -3 28 C-3 20.41 -3 12.82 -3 5 C-3.99 4.67 -4.98 4.34 -6 4 C-4.35 4 -2.7 4 -1 4 C-0.67 2.68 -0.34 1.36 0 0 Z " fill="#DFE1D0" transform="translate(390,136)"/>
<path d="M0 0 C2.0078125 0.328125 2.0078125 0.328125 3.75390625 1.51953125 C5.44420471 3.95756298 5.30972595 5.5790131 5.1953125 8.515625 C5.16824219 9.41667969 5.14117187 10.31773437 5.11328125 11.24609375 C5.07847656 11.93316406 5.04367188 12.62023437 5.0078125 13.328125 C5.6678125 13.658125 6.3278125 13.988125 7.0078125 14.328125 C5.1953125 15.015625 5.1953125 15.015625 3.0078125 15.328125 C1.1953125 14.265625 1.1953125 14.265625 0.0078125 12.328125 C0.3828125 9.390625 0.3828125 9.390625 1.0078125 6.328125 C0.6500511 4.05161755 0.6500511 4.05161755 0.0078125 2.328125 C-1.3121875 1.998125 -2.6321875 1.668125 -3.9921875 1.328125 C-3.9921875 2.648125 -3.9921875 3.968125 -3.9921875 5.328125 C-5.3121875 5.328125 -6.6321875 5.328125 -7.9921875 5.328125 C-6.76176005 -0.12091087 -5.63631991 0.20798228 0 0 Z " fill="#676863" transform="translate(193.9921875,256.671875)"/>
<path d="M0 0 C0.26218749 3.14624993 0.24754367 4.61837017 -1.5 7.3125 C-1.995 7.869375 -2.49 8.42625 -3 9 C-5.31 8.67 -7.62 8.34 -10 8 C-10.25 5.6875 -10.25 5.6875 -10 3 C-7.15514175 0.15514175 -3.83362524 -1.91681262 0 0 Z " fill="#60615C" transform="translate(406,263)"/>
<path d="M0 0 C8.25 0 16.5 0 25 0 C25 0.33 25 0.66 25 1 C18.07 1 11.14 1 4 1 C4 2.98 4 4.96 4 7 C4.99 7.33 5.98 7.66 7 8 C6.67 10.64 6.34 13.28 6 16 C5.67 16 5.34 16 5 16 C5 13.36 5 10.72 5 8 C4.01 8 3.02 8 2 8 C1.67 10.64 1.34 13.28 1 16 C0.67 16 0.34 16 0 16 C0 10.72 0 5.44 0 0 Z " fill="#6C6F3F" transform="translate(441,144)"/>
<path d="M0 0 C0.33 0.66 0.66 1.32 1 2 C10.57 2 20.14 2 30 2 C29.34 3.32 28.68 4.64 28 6 C28 5.34 28 4.68 28 4 C24.39520054 4.10979085 20.79145321 4.24044045 17.1875 4.375 C16.16333984 4.4059375 15.13917969 4.436875 14.08398438 4.46875 C12.60961914 4.52675781 12.60961914 4.52675781 11.10546875 4.5859375 C10.19949951 4.6173584 9.29353027 4.6487793 8.36010742 4.68115234 C5.73474608 4.86027919 5.73474608 4.86027919 3 7 C3 6.01 3 5.02 3 4 C2.01 4.33 1.02 4.66 0 5 C0 3.35 0 1.7 0 0 Z " fill="#3B767A" transform="translate(412,330)"/>
<path d="M0 0 C0.06058594 0.91523438 0.12117188 1.83046875 0.18359375 2.7734375 C0.26738281 3.96195312 0.35117187 5.15046875 0.4375 6.375 C0.51871094 7.55835938 0.59992188 8.74171875 0.68359375 9.9609375 C0.81084936 12.91518901 0.81084936 12.91518901 2 15 C-0.64 15 -3.28 15 -6 15 C-5.34 14.67 -4.68 14.34 -4 14 C-4 10.04 -4 6.08 -4 2 C-4.66 1.67 -5.32 1.34 -6 1 C-4 0 -4 0 0 0 Z " fill="#646560" transform="translate(440,257)"/>
<path d="M0 0 C0.66 0 1.32 0 2 0 C2.20638953 29.13902594 2.20638953 29.13902594 1 42 C0.67 42 0.34 42 0 42 C0.00523682 41.09644775 0.01047363 40.19289551 0.01586914 39.26196289 C0.03287686 35.92048511 0.04543333 32.57905308 0.05493164 29.23754883 C0.05997101 27.78929927 0.06680253 26.34105483 0.07543945 24.89282227 C0.08752247 22.81525412 0.09323211 20.73775303 0.09765625 18.66015625 C0.10289307 17.40855713 0.10812988 16.15695801 0.11352539 14.86743164 C0.32887035 12.10267706 0.32887035 12.10267706 -1 11 C-1.09823937 9.33570949 -1.12973631 7.66718069 -1.125 6 C-1.12757812 5.0925 -1.13015625 4.185 -1.1328125 3.25 C-1 1 -1 1 0 0 Z " fill="#F0F3DE" transform="translate(67,158)"/>
<path d="M0 0 C2.97 0 5.94 0 9 0 C9.33 0.66 9.66 1.32 10 2 C10.66 2 11.32 2 12 2 C12 2.66 12 3.32 12 4 C10.68 4 9.36 4 8 4 C8 3.34 8 2.68 8 2 C6.02 2 4.04 2 2 2 C2.10699219 3.20398438 2.21398437 4.40796875 2.32421875 5.6484375 C2.44612918 7.22389535 2.56717838 8.79942001 2.6875 10.375 C2.79674805 11.56609375 2.79674805 11.56609375 2.90820312 12.78125 C3.07421875 15.0859375 3.07421875 15.0859375 3 19 C2.01 19.66 1.02 20.32 0 21 C0 14.07 0 7.14 0 0 Z " fill="#DEF3F1" transform="translate(136,353)"/>
<path d="M0 0 C0.99 0.33 1.98 0.66 3 1 C4.6875 4.5625 4.6875 4.5625 6 8 C6.99 8 7.98 8 9 8 C8.48967606 11.77639718 7.79233071 13.44722581 5 16 C3.96728358 13.90163996 2.94916283 11.79609109 1.9375 9.6875 C1.36902344 8.51574219 0.80054688 7.34398437 0.21484375 6.13671875 C-1 3 -1 3 0 0 Z " fill="#5D5E59" transform="translate(157,256)"/>
<path d="M0 0 C4.95 0 9.9 0 15 0 C15 6.93 15 13.86 15 21 C14.67 21 14.34 21 14 21 C14 15.39 14 9.78 14 4 C10.37810828 3.27562166 7.76234736 2.88414407 4.1875 2.9375 C3.00220703 2.95103516 3.00220703 2.95103516 1.79296875 2.96484375 C0.90544922 2.98224609 0.90544922 2.98224609 0 3 C0 2.01 0 1.02 0 0 Z " fill="#C9E2DE" transform="translate(400,353)"/>
<path d="M0 0 C0.33 0 0.66 0 1 0 C1 6.93 1 13.86 1 21 C-7.58 21 -16.16 21 -25 21 C-23 19 -23 19 -20.71484375 18.83984375 C-19.79832031 18.87207031 -18.88179688 18.90429688 -17.9375 18.9375 C-13.46272964 19.03746202 -9.28684242 18.7533379 -4.875 18.0234375 C-3 18 -3 18 0 20 C0 13.4 0 6.8 0 0 Z " fill="#D3ECED" transform="translate(440,310)"/>
<path d="M0 0 C5.36513131 0.847126 10.6787385 1.91681831 16 3 C16 3.33 16 3.66 16 4 C11.71 4 7.42 4 3 4 C3 10.93 3 17.86 3 25 C2.67 25 2.34 25 2 25 C1.93941406 24.02417969 1.87882812 23.04835938 1.81640625 22.04296875 C1.73261719 20.77066406 1.64882813 19.49835938 1.5625 18.1875 C1.48128906 16.92292969 1.40007812 15.65835937 1.31640625 14.35546875 C1.12815453 11.00818107 1.12815453 11.00818107 0 8 C-0.12781786 5.32605036 -0.04391871 2.67904143 0 0 Z " fill="#5D8B8C" transform="translate(266,328)"/>
<path d="M0 0 C5.61 0 11.22 0 17 0 C17 4.95 17 9.9 17 15 C15.02 15.66 13.04 16.32 11 17 C10.67 16.34 10.34 15.68 10 15 C11.65 14.67 13.3 14.34 15 14 C15 11.03 15 8.06 15 5 C14.01 5 13.02 5 12 5 C12 4.01 12 3.02 12 2 C8.04 1.67 4.08 1.34 0 1 C0 0.67 0 0.34 0 0 Z " fill="#EBEDE0" transform="translate(238,186)"/>
<path d="M0 0 C1.32 0 2.64 0 4 0 C4 0.66 4 1.32 4 2 C3.01 2.495 3.01 2.495 2 3 C1.81936982 7.60606966 2.07173956 10.82210238 4 15 C4.67795528 16.99620166 5.34733531 18.99538701 6 21 C4.35 21.66 2.7 22.32 1 23 C-0.2263757 20.54724859 -0.11415314 18.9494219 -0.09765625 16.2109375 C-0.09443359 15.26992187 -0.09121094 14.32890625 -0.08789062 13.359375 C-0.07951172 12.37453125 -0.07113281 11.3896875 -0.0625 10.375 C-0.05798828 9.38242188 -0.05347656 8.38984375 -0.04882812 7.3671875 C-0.03702145 4.9113984 -0.020554 2.45572896 0 0 Z " fill="#6D7143" transform="translate(362,166)"/>
<path d="M0 0 C7.92 0 15.84 0 24 0 C24 6.6 24 13.2 24 20 C23.67 20 23.34 20 23 20 C21.56827761 14.01382212 21.93810223 8.1278791 22 2 C14.74 1.67 7.48 1.34 0 1 C0 0.67 0 0.34 0 0 Z " fill="#3F7075" transform="translate(469,332)"/>
<path d="M0 0 C0.33 0.66 0.66 1.32 1 2 C1.99 2 2.98 2 4 2 C4.66 3.65 5.32 5.3 6 7 C10.65052872 7.26932521 10.65052872 7.26932521 15 6 C13.25 9.875 13.25 9.875 11 11 C4.63157895 11.46315789 4.63157895 11.46315789 2.125 9.625 C-0.16242017 6.32094865 -0.08650741 3.97934099 0 0 Z " fill="#63645F" transform="translate(339,261)"/>
<path d="M0 0 C0.33 0.66 0.66 1.32 1 2 C3.97 1.34 6.94 0.68 10 0 C10 0.99 10 1.98 10 3 C-1.22 3 -12.44 3 -24 3 C-24 2.67 -24 2.34 -24 2 C-12.12 1.01 -12.12 1.01 0 0 Z " fill="#457879" transform="translate(272,371)"/>
<path d="M0 0 C4.29 0 8.58 0 13 0 C13 4.95 13 9.9 13 15 C12.01 15.495 12.01 15.495 11 16 C10.80482446 14.06325815 10.61912127 12.12555991 10.4375 10.1875 C10.33308594 9.10855469 10.22867187 8.02960938 10.12109375 6.91796875 C10 4 10 4 11 1 C9.02463255 1.34786708 9.02463255 1.34786708 7 2 C6.67 2.66 6.34 3.32 6 4 C4.35 4 2.7 4 1 4 C0.67 2.68 0.34 1.36 0 0 Z " fill="#43797B" transform="translate(269,353)"/>
<path d="M0 0 C0.33 0 0.66 0 1 0 C1 6.93 1 13.86 1 21 C0.01 21.33 -0.98 21.66 -2 22 C-2.66 21.67 -3.32 21.34 -4 21 C-3.34 16.05 -2.68 11.1 -2 6 C-1.34 6 -0.68 6 0 6 C0 4.02 0 2.04 0 0 Z " fill="#E4E7D6" transform="translate(334,186)"/>
<path d="M0 0 C8.25 0 16.5 0 25 0 C25 0.99 25 1.98 25 3 C21.7 3.33 18.4 3.66 15 4 C15.33 3.01 15.66 2.02 16 1 C15.45859375 1.16371094 14.9171875 1.32742187 14.359375 1.49609375 C11.59777407 2.08590587 9.07181861 2.09609308 6.25 2.0625 C5.26515625 2.05347656 4.2803125 2.04445312 3.265625 2.03515625 C2.51796875 2.02355469 1.7703125 2.01195312 1 2 C0.67 1.34 0.34 0.68 0 0 Z " fill="#6B6C44" transform="translate(492,186)"/>
<path d="M0 0 C8.25 0 16.5 0 25 0 C21.49619917 1.75190042 19.26634773 2.44684701 15.5 3.0625 C12.29096347 3.59587008 9.14436868 4.16199608 6 5 C5.34 4.01 4.68 3.02 4 2 C2.68 1.34 1.36 0.68 0 0 Z " fill="#3E7277" transform="translate(495,353)"/>
<path d="M0 0 C0.99 0.33 1.98 0.66 3 1 C3 4.63 3 8.26 3 12 C2.01 12.495 2.01 12.495 1 13 C1 12.34 1 11.68 1 11 C0.34 11 -0.32 11 -1 11 C-1 11.66 -1 12.32 -1 13 C-1.99 13.33 -2.98 13.66 -4 14 C-4.66 13.01 -5.32 12.02 -6 11 C-5.67 10.34 -5.34 9.68 -5 9 C-4.34 9 -3.68 9 -3 9 C-2.67 8.34 -2.34 7.68 -2 7 C-1.01 7 -0.02 7 1 7 C0.34 6.67 -0.32 6.34 -1 6 C-1 2 -1 2 0 0 Z " fill="#E4E5E0" transform="translate(228,258)"/>
<path d="M0 0 C4.29 0 8.58 0 13 0 C13 6.6 13 13.2 13 20 C9.04 20 5.08 20 1 20 C1 19.67 1 19.34 1 19 C4.63 19 8.26 19 12 19 C11.85975781 16.52039864 11.7130815 14.04147598 11.5625 11.5625 C11.52318359 10.85544922 11.48386719 10.14839844 11.44335938 9.41992188 C11.52375562 5.91309581 11.52375562 5.91309581 10 3 C8.32115762 2.6068352 6.63149955 2.25914548 4.9375 1.9375 C4.01839844 1.76089844 3.09929687 1.58429688 2.15234375 1.40234375 C1.44207031 1.26957031 0.73179687 1.13679688 0 1 C0 0.67 0 0.34 0 0 Z " fill="#E5F7F7" transform="translate(229,332)"/>
<path d="M0 0 C0.66 0 1.32 0 2 0 C2 6.27 2 12.54 2 19 C-2.29 19 -6.58 19 -11 19 C-11 18.67 -11 18.34 -11 18 C-7.7 18 -4.4 18 -1 18 C-1.01740234 16.17662109 -1.01740234 16.17662109 -1.03515625 14.31640625 C-1.04453278 12.73177236 -1.05363313 11.14713682 -1.0625 9.5625 C-1.07087891 8.76005859 -1.07925781 7.95761719 -1.08789062 7.13085938 C-1.0965143 5.08704779 -1.0522815 3.04316098 -1 1 C-0.67 0.67 -0.34 0.34 0 0 Z " fill="#4A8083" transform="translate(147,333)"/>
<path d="M0 0 C8.25 0 16.5 0 25 0 C25 0.33 25 0.66 25 1 C17.41 1.33 9.82 1.66 2 2 C2 7.77790229 2.05676146 12.45847359 3 18 C2.01 18.33 1.02 18.66 0 19 C0 12.73 0 6.46 0 0 Z " fill="#387171" transform="translate(389,311)"/>
<path d="M0 0 C5.28 0 10.56 0 16 0 C16 0.66 16 1.32 16 2 C12.5233662 4.14336161 9.78770805 4.21277626 5.75 4.125 C4.67234375 4.10695312 3.5946875 4.08890625 2.484375 4.0703125 C1.66453125 4.04710937 0.8446875 4.02390625 0 4 C0 2.68 0 1.36 0 0 Z " fill="#818549" transform="translate(176,201)"/>
<path d="M0 0 C1.32 0 2.64 0 4 0 C4 6.93 4 13.86 4 21 C2.35 20.67 0.7 20.34 -1 20 C-0.01 19.34 0.98 18.68 2 18 C2.36460453 15.33346095 2.36460453 15.33346095 2.1875 12.375 C2.16042969 11.37210937 2.13335937 10.36921875 2.10546875 9.3359375 C2.05326172 8.17964844 2.05326172 8.17964844 2 7 C1.01 7.33 0.02 7.66 -1 8 C-1 7.34 -1 6.68 -1 6 C-0.34 6 0.32 6 1 6 C0.67 4.02 0.34 2.04 0 0 Z " fill="#D7ECE9" transform="translate(105,353)"/>
<path d="M0 0 C0.33 0 0.66 0 1 0 C1.33 4.29 1.66 8.58 2 13 C2.66 13 3.32 13 4 13 C4 13.66 4 14.32 4 15 C1.03 15 -1.94 15 -5 15 C-5 14.34 -5 13.68 -5 13 C-4.01 13 -3.02 13 -2 13 C-2.33 10.03 -2.66 7.06 -3 4 C-2.01 4 -1.02 4 0 4 C0 2.68 0 1.36 0 0 Z " fill="#696A65" transform="translate(175,257)"/>
<path d="M0 0 C2.475 0.495 2.475 0.495 5 1 C5 6.94 5 12.88 5 19 C4.67 18.34 4.34 17.68 4 17 C3.34 17 2.68 17 2 17 C1.93941406 15.94039063 1.87882813 14.88078125 1.81640625 13.7890625 C1.73199873 12.40102779 1.64735083 11.01300768 1.5625 9.625 C1.52318359 8.92632812 1.48386719 8.22765625 1.44335938 7.5078125 C1.25719866 3.62639508 1.25719866 3.62639508 0 0 Z " fill="#494A45" transform="translate(206,250)"/>
<path d="M0 0 C2.0625 0.4375 2.0625 0.4375 4 1 C4 1.66 4 2.32 4 3 C4.66 3.33 5.32 3.66 6 4 C-2.58 4 -11.16 4 -20 4 C-19.67 3.34 -19.34 2.68 -19 2 C-16.96875 1.55078125 -16.96875 1.55078125 -14.5 1.3125 C-13.6853125 1.22613281 -12.870625 1.13976562 -12.03125 1.05078125 C-11.3609375 1.03402344 -10.690625 1.01726562 -10 1 C-9.67 1.33 -9.34 1.66 -9 2 C-7.11997635 1.93626411 -7.11997635 1.93626411 -5 1.625 C-3.9171875 1.48964844 -3.9171875 1.48964844 -2.8125 1.3515625 C-0.98619656 1.17270464 -0.98619656 1.17270464 0 0 Z " fill="#787954" transform="translate(461,182)"/>
<path d="M0 0 C0.99 0 1.98 0 3 0 C3 2.64 3 5.28 3 8 C3.66 8 4.32 8 5 8 C5.33 8.99 5.66 9.98 6 11 C7.32 10.34 8.64 9.68 10 9 C10 10.65 10 12.3 10 14 C8.02 14.66 6.04 15.32 4 16 C2 14 2 14 1.8046875 10.9609375 C1.82789063 9.77757812 1.85109375 8.59421875 1.875 7.375 C1.89304687 6.18648438 1.91109375 4.99796875 1.9296875 3.7734375 C1.95289063 2.85820312 1.97609375 1.94296875 2 1 C1.34 0.67 0.68 0.34 0 0 Z " fill="#E4E5E0" transform="translate(438,256)"/>
<path d="M0 0 C0 0.33 0 0.66 0 1 C-6.04819812 1.88902912 -11.89223486 2.12348383 -18 2.0625 C-18.87011719 2.05798828 -19.74023438 2.05347656 -20.63671875 2.04882812 C-22.75784293 2.0371736 -24.8789311 2.01924357 -27 2 C-19.41079508 -3.05946995 -8.67244864 -0.68411306 0 0 Z " fill="#717246" transform="translate(112,205)"/>
<path d="M0 0 C4.95 0 9.9 0 15 0 C15 0.33 15 0.66 15 1 C11.37 1.33 7.74 1.66 4 2 C3.67 3.32 3.34 4.64 3 6 C2.34 6 1.68 6 1 6 C1 10.62 1 15.24 1 20 C0.67 20 0.34 20 0 20 C0 13.4 0 6.8 0 0 Z " fill="#EDECD8" transform="translate(441,186)"/>
<path d="M0 0 C0.99 0 1.98 0 3 0 C4 3 4 3 4 6 C2.68 6 1.36 6 0 6 C0 5.34 0 4.68 0 4 C-1.32 4.33 -2.64 4.66 -4 5 C-4 4.34 -4 3.68 -4 3 C-10.6 2.67 -17.2 2.34 -24 2 C-24 1.67 -24 1.34 -24 1 C-23.30849854 1.00523682 -22.61699707 1.01047363 -21.90454102 1.01586914 C-18.79053648 1.036575 -15.67654639 1.04963963 -12.5625 1.0625 C-11.47388672 1.07087891 -10.38527344 1.07925781 -9.26367188 1.08789062 C-7.71196289 1.09272461 -7.71196289 1.09272461 -6.12890625 1.09765625 C-5.17056885 1.10289307 -4.21223145 1.10812988 -3.22485352 1.11352539 C-1.02714661 1.2505313 -1.02714661 1.2505313 0 0 Z " fill="#367274" transform="translate(364,352)"/>
<path d="M0 0 C0 0.66 0 1.32 0 2 C1.65 1.34 3.3 0.68 5 0 C5 0.66 5 1.32 5 2 C-1.28214521 6.18809681 -10.78334365 4.11025482 -18 3 C-18 2.67 -18 2.34 -18 2 C-15.37518273 1.66517137 -12.75016613 1.3320723 -10.125 1 C-9.37863281 0.90460938 -8.63226563 0.80921875 -7.86328125 0.7109375 C-2.2265625 0 -2.2265625 0 0 0 Z " fill="#E8EAE8" transform="translate(410,304)"/>
<path d="M0 0 C3.7910119 1.44950455 7.3874638 3.15172566 11 5 C11 5.99 11 6.98 11 8 C9.35 8.33 7.7 8.66 6 9 C5.7525 8.38125 5.505 7.7625 5.25 7.125 C3.79371361 4.64931313 2.62187494 4.04874998 0 3 C0 2.01 0 1.02 0 0 Z " fill="#E0E1DC" transform="translate(358,262)"/>
<path d="M0 0 C9.57 0 19.14 0 29 0 C29 0.99 29 1.98 29 3 C27.96875 2.814375 26.9375 2.62875 25.875 2.4375 C22.23851558 2.02692918 19.54562991 2.221691 16 3 C16 2.34 16 1.68 16 1 C14.5199159 1.11362262 13.04089926 1.24122908 11.5625 1.375 C10.32693359 1.47941406 10.32693359 1.47941406 9.06640625 1.5859375 C8.04353516 1.79089844 8.04353516 1.79089844 7 2 C6.67 2.66 6.34 3.32 6 4 C5.34 4 4.68 4 4 4 C4 3.34 4 2.68 4 2 C2.68 2 1.36 2 0 2 C0 1.34 0 0.68 0 0 Z " fill="#696B3E" transform="translate(410,165)"/>
<path d="M0 0 C0.33 0 0.66 0 1 0 C1 2.64 1 5.28 1 8 C1.66 8.33 2.32 8.66 3 9 C2.9071875 10.175625 2.9071875 10.175625 2.8125 11.375 C2.874375 12.24125 2.93625 13.1075 3 14 C3.99 14.66 4.98 15.32 6 16 C6 16.66 6 17.32 6 18 C4.02 18.99 2.04 19.98 0 21 C0 14.07 0 7.14 0 0 Z " fill="#CCE1DF" transform="translate(388,353)"/>
<path d="M0 0 C1.32 0 2.64 0 4 0 C4.19617816 2.54126172 4.38217248 5.08260459 4.5625 7.625 C4.61857422 8.33785156 4.67464844 9.05070312 4.73242188 9.78515625 C5.02495798 14.03668104 4.89547939 17.79456347 4 22 C4.66 22.33 5.32 22.66 6 23 C3.36 23 0.72 23 -2 23 C-2 22.34 -2 21.68 -2 21 C-1.34 21 -0.68 21 0 21 C0 20.01 0 19.02 0 18 C0.66 18 1.32 18 2 18 C2.05382106 15.37472811 2.09358313 12.75055287 2.125 10.125 C2.14175781 9.37863281 2.15851563 8.63226563 2.17578125 7.86328125 C2.1933959 5.90805539 2.10320189 3.95257979 2 2 C1.34 1.34 0.68 0.68 0 0 Z " fill="#787974" transform="translate(208,249)"/>
<path d="M0 0 C0.99 0.33 1.98 0.66 3 1 C3.33 7.6 3.66 14.2 4 21 C2.68 21 1.36 21 0 21 C0 14.07 0 7.14 0 0 Z " fill="#E0E3CD" transform="translate(467,143)"/>
<path d="M0 0 C0.99 0.33 1.98 0.66 3 1 C3 7.93 3 14.86 3 22 C2.67 22 2.34 22 2 22 C1.67 20.02 1.34 18.04 1 16 C0.67 16 0.34 16 0 16 C-0.19441368 13.7089095 -0.38033135 11.41709663 -0.5625 9.125 C-0.71912109 7.21074219 -0.71912109 7.21074219 -0.87890625 5.2578125 C-1 2 -1 2 0 0 Z " fill="#D8E9E6" transform="translate(226,352)"/>
<path d="M0 0 C0.66 0 1.32 0 2 0 C2 6.27 2 12.54 2 19 C0.68 18.34 -0.64 17.68 -2 17 C-2.75 13.875 -2.75 13.875 -3 11 C-2.01 11 -1.02 11 0 11 C0 7.37 0 3.74 0 0 Z " fill="#E0F2ED" transform="translate(333,357)"/>
<path d="M0 0 C0.99 0 1.98 0 3 0 C3.33 0.66 3.66 1.32 4 2 C4.99 2.33 5.98 2.66 7 3 C7 3.99 7 4.98 7 6 C7.99 6.33 8.98 6.66 10 7 C10 7.33 10 7.66 10 8 C8.35 8 6.7 8 5 8 C4.67 7.01 4.34 6.02 4 5 C2.68 5.99 1.36 6.98 0 8 C-0.66 7.34 -1.32 6.68 -2 6 C-1.34 6 -0.68 6 0 6 C-0.2784375 4.7934375 -0.2784375 4.7934375 -0.5625 3.5625 C-0.706875 2.716875 -0.85125 1.87125 -1 1 C-0.67 0.67 -0.34 0.34 0 0 Z " fill="#DADBD6" transform="translate(379,249)"/>
<path d="M0 0 C0.66 1.32 1.32 2.64 2 4 C2.66 4.33 3.32 4.66 4 5 C5.29411765 12.41176471 5.29411765 12.41176471 4 15 C3.34 15 2.68 15 2 15 C1.34 16.32 0.68 17.64 0 19 C0 12.73 0 6.46 0 0 Z " fill="#60663C" transform="translate(468,187)"/>
<path d="M0 0 C0.33 0 0.66 0 1 0 C1 6.93 1 13.86 1 21 C-2.96 21 -6.92 21 -11 21 C-11.33 20.34 -11.66 19.68 -12 19 C-8.37 19 -4.74 19 -1 19 C-0.67 12.73 -0.34 6.46 0 0 Z " fill="#EEEEDA" transform="translate(201,143)"/>
<path d="M0 0 C2 2 2 2 2.1953125 5.9140625 C2.18200376 7.48449351 2.15813602 9.05486221 2.125 10.625 C2.11597656 11.42679687 2.10695312 12.22859375 2.09765625 13.0546875 C2.07406223 15.03658523 2.03819065 17.01832981 2 19 C0.68 19 -0.64 19 -2 19 C-2 18.01 -2 17.02 -2 16 C-2.99 16.33 -3.98 16.66 -5 17 C-5 16.01 -5 15.02 -5 14 C-3.35 14 -1.7 14 0 14 C0 9.38 0 4.76 0 0 Z " fill="#EBFAF5" transform="translate(150,339)"/>
<path d="M0 0 C0 2.31 0 4.62 0 7 C-0.99 7.495 -0.99 7.495 -2 8 C-2.33 8.99 -2.66 9.98 -3 11 C-3.66 10.67 -4.32 10.34 -5 10 C-5.4140625 7.71484375 -5.4140625 7.71484375 -5.625 4.9375 C-5.69976563 4.01839844 -5.77453125 3.09929687 -5.8515625 2.15234375 C-5.90054688 1.44207031 -5.94953125 0.73179687 -6 0 C-3.50907189 -1.24546405 -2.58919267 -0.7767578 0 0 Z " fill="#408A92" transform="translate(518,357)"/>
<path d="M0 0 C0 0.66 0 1.32 0 2 C-7.59 2 -15.18 2 -23 2 C-16.0935236 -2.6043176 -7.87526553 -0.7697628 0 0 Z " fill="#E4F1F2" transform="translate(468,307)"/>
<path d="M0 0 C1.65 0 3.3 0 5 0 C4.9375 2.3125 4.9375 2.3125 4 5 C1.68895182 6.05047644 -0.64583651 7.05007438 -3 8 C-4.4818964 10.0351761 -4.4818964 10.0351761 -5 12 C-5 10.68 -5 9.36 -5 8 C-5.66 7.67 -6.32 7.34 -7 7 C-3.375 4 -3.375 4 0 4 C0 2.68 0 1.36 0 0 Z " fill="#EAEAE6" transform="translate(400,258)"/>
<path d="M0 0 C0.66 0 1.32 0 2 0 C2.33 4.95 2.66 9.9 3 15 C2.34 13.68 1.68 12.36 1 11 C-0.65 11 -2.3 11 -4 11 C-2.7874262 7.27566618 -1.49140021 3.62197194 0 0 Z " fill="#DDDED9" transform="translate(170,255)"/>
<path d="M0 0 C0.33 0 0.66 0 1 0 C1.13277344 0.83144531 1.26554688 1.66289062 1.40234375 2.51953125 C1.57894531 3.60621094 1.75554687 4.69289062 1.9375 5.8125 C2.19853516 7.43091797 2.19853516 7.43091797 2.46484375 9.08203125 C2.93871921 12.04933356 2.93871921 12.04933356 4 15 C3.34 15 2.68 15 2 15 C2 17.31 2 19.62 2 22 C1.34 22 0.68 22 0 22 C0 14.74 0 7.48 0 0 Z " fill="#E4E7CD" transform="translate(202,186)"/>
<path d="M0 0 C0.66 1.32 1.32 2.64 2 4 C2.66 4 3.32 4 4 4 C4 4.66 4 5.32 4 6 C3.34 6 2.68 6 2 6 C2 10.62 2 15.24 2 20 C1.34 20.33 0.68 20.66 0 21 C0 14.07 0 7.14 0 0 Z " fill="#D3D4BE" transform="translate(308,186)"/>
<path d="M0 0 C0.99 0 1.98 0 3 0 C3 0.66 3 1.32 3 2 C4.32 1.67 5.64 1.34 7 1 C7 1.66 7 2.32 7 3 C11.62 3 16.24 3 21 3 C21 3.33 21 3.66 21 4 C12.42 4 3.84 4 -5 4 C-4.67 3.34 -4.34 2.68 -4 2 C-3.01 2 -2.02 2 -1 2 C-0.67 1.34 -0.34 0.68 0 0 Z " fill="#7C8257" transform="translate(393,182)"/>
<path d="M0 0 C0 4.95 0 9.9 0 15 C-2.35333796 10.29332409 -2.17102038 8.1306114 -2 3 C-2.66 3 -3.32 3 -4 3 C-4.33 3.66 -4.66 4.32 -5 5 C-5 4.01 -5 3.02 -5 2 C-6.65 2 -8.3 2 -10 2 C-10 1.67 -10 1.34 -10 1 C-6.56484998 0.37542727 -3.50935186 0 0 0 Z " fill="#4E8187" transform="translate(520,354)"/>
<path d="M0 0 C0.33 0 0.66 0 1 0 C1 1.65 1 3.3 1 5 C-5.6 5 -12.2 5 -19 5 C-19 4.34 -19 3.68 -19 3 C-17.79601562 2.95101563 -16.59203125 2.90203125 -15.3515625 2.8515625 C-13.77601802 2.77653657 -12.20049834 2.70098867 -10.625 2.625 C-9.8309375 2.5940625 -9.036875 2.563125 -8.21875 2.53125 C-3.63332625 2.48183579 -3.63332625 2.48183579 0 0 Z " fill="#6F6F6D" transform="translate(332,267)"/>
<path d="M0 0 C-0.33 1.32 -0.66 2.64 -1 4 C-1.66 3.34 -2.32 2.68 -3 2 C-5.57061311 1.35232207 -5.57061311 1.35232207 -8 1 C-7.67 2.32 -7.34 3.64 -7 5 C-8.98 5.99 -8.98 5.99 -11 7 C-11.33 5.35 -11.66 3.7 -12 2 C-8.15820154 -2.0018734 -5.05897886 -0.92747946 0 0 Z " fill="#747570" transform="translate(372,257)"/>
<path d="M0 0 C2 2 2 2 2.125 5.625 C2.08375 6.73875 2.0425 7.8525 2 9 C0.02 9 -1.96 9 -4 9 C-4 7.02 -4 5.04 -4 3 C-3.01 2.67 -2.02 2.34 -1 2 C-0.67 1.34 -0.34 0.68 0 0 Z " fill="#6B6E3F" transform="translate(518,198)"/>
<path d="M0 0 C4.62 0 9.24 0 14 0 C14 1.65 14 3.3 14 5 C13.01 5 12.02 5 11 5 C11 4.34 11 3.68 11 3 C7.37 3 3.74 3 0 3 C0 2.01 0 1.02 0 0 Z " fill="#EEF0D8" transform="translate(400,186)"/>
<path d="M0 0 C7.26 0 14.52 0 22 0 C22 0.33 22 0.66 22 1 C14.74 1.66 7.48 2.32 0 3 C0 2.01 0 1.02 0 0 Z " fill="#6B6D49" transform="translate(282,186)"/>
<path d="M0 0 C2.64 0 5.28 0 8 0 C7.6875 1.875 7.6875 1.875 7 4 C6.01 4.66 5.02 5.32 4 6 C3.67 6.66 3.34 7.32 3 8 C1.5 6.8125 1.5 6.8125 0 5 C-0.1875 2.3125 -0.1875 2.3125 0 0 Z " fill="#B1B2AD" transform="translate(432,250)"/>
<path d="M0 0 C0.33 0 0.66 0 1 0 C1 6.93 1 13.86 1 21 C0.34 21 -0.32 21 -1 21 C-1 20.34 -1 19.68 -1 19 C-3.31 19 -5.62 19 -8 19 C-7.67 18.34 -7.34 17.68 -7 17 C-4.69 17 -2.38 17 0 17 C0 11.39 0 5.78 0 0 Z " fill="#858761" transform="translate(440,186)"/>
<path d="M0 0 C5.28 0 10.56 0 16 0 C9.625 4.25 9.625 4.25 4.8125 3.625 C3.46091797 3.45871094 3.46091797 3.45871094 2.08203125 3.2890625 C1.39496094 3.19367188 0.70789063 3.09828125 0 3 C0 2.01 0 1.02 0 0 Z " fill="#81844A" transform="translate(160,188)"/>
<path d="M0 0 C0.1875 2.375 0.1875 2.375 0 5 C-3 7 -3 7 -7 7 C-7 5.02 -7 3.04 -7 1 C-1.125 0 -1.125 0 0 0 Z " fill="#68703A" transform="translate(395,156)"/>
<path d="M0 0 C0.33 0 0.66 0 1 0 C1.36615094 2.03955149 1.71739279 4.08178248 2.0625 6.125 C2.25972656 7.26195312 2.45695312 8.39890625 2.66015625 9.5703125 C3.00067366 13.00679858 2.86621557 15.66383262 2 19 C1.34 19.33 0.68 19.66 0 20 C0 13.4 0 6.8 0 0 Z " fill="#E5FAF8" transform="translate(283,311)"/>
<path d="M0 0 C2.35119399 3.52679099 2.21443452 5.02879485 2.125 9.1875 C2.10695312 10.27417969 2.08890625 11.36085937 2.0703125 12.48046875 C2.03550781 13.72763672 2.03550781 13.72763672 2 15 C-1.3 15 -4.6 15 -8 15 C-8 14.67 -8 14.34 -8 14 C-5.69 14 -3.38 14 -1 14 C-0.67 9.38 -0.34 4.76 0 0 Z " fill="#71754C" transform="translate(200,192)"/>
<path d="M0 0 C2 1 2 1 3 2 C3.33926947 4.33247761 3.67240066 6.66585471 4 9 C4.33 9.66 4.66 10.32 5 11 C2.69 11 0.38 11 -2 11 C-1.67 10.34 -1.34 9.68 -1 9 C-0.77532169 7.46331135 -0.59203195 5.92031946 -0.4375 4.375 C-0.35371094 3.55773437 -0.26992187 2.74046875 -0.18359375 1.8984375 C-0.12300781 1.27195312 -0.06242188 0.64546875 0 0 Z " fill="#545550" transform="translate(231,261)"/>
<path d="M0 0 C1.32 0 2.64 0 4 0 C4.62608696 8.95652174 4.62608696 8.95652174 2.125 13.125 C0 15 0 15 -2 15 C-0.125 10.125 -0.125 10.125 1 9 C1.23075082 7.65252916 1.41153063 6.29622435 1.5625 4.9375 C1.7790625 2.9884375 1.7790625 2.9884375 2 1 C1.34 0.67 0.68 0.34 0 0 Z " fill="#F6F8E9" transform="translate(410,191)"/>
<path d="M0 0 C1.4540625 0.0309375 1.4540625 0.0309375 2.9375 0.0625 C2.9375 0.3925 2.9375 0.7225 2.9375 1.0625 C5.9075 1.3925 8.8775 1.7225 11.9375 2.0625 C11.9375 2.3925 11.9375 2.7225 11.9375 3.0625 C4.3475 3.0625 -3.2425 3.0625 -11.0625 3.0625 C-11.0625 2.7325 -11.0625 2.4025 -11.0625 2.0625 C-9.928125 1.918125 -8.79375 1.77375 -7.625 1.625 C-3.97252634 1.04829363 -3.54680005 0.07238367 0 0 Z " fill="#3D7A7E" transform="translate(159.0625,327.9375)"/>
<path d="M0 0 C1.23556641 0.01740234 1.23556641 0.01740234 2.49609375 0.03515625 C3.32238281 0.04417969 4.14867187 0.05320312 5 0.0625 C5.63808594 0.07410156 6.27617187 0.08570313 6.93359375 0.09765625 C7.59359375 1.41765625 8.25359375 2.73765625 8.93359375 4.09765625 C7.61359375 4.42765625 6.29359375 4.75765625 4.93359375 5.09765625 C4.93359375 3.77765625 4.93359375 2.45765625 4.93359375 1.09765625 C3.28359375 1.09765625 1.63359375 1.09765625 -0.06640625 1.09765625 C-0.06640625 2.41765625 -0.06640625 3.73765625 -0.06640625 5.09765625 C-1.38640625 5.09765625 -2.70640625 5.09765625 -4.06640625 5.09765625 C-2.94676868 0.13926128 -2.94676868 0.13926128 0 0 Z " fill="#656661" transform="translate(400.06640625,256.90234375)"/>
<path d="M0 0 C1.09570312 0.00902344 2.19140625 0.01804688 3.3203125 0.02734375 C4.16335938 0.03894531 5.00640625 0.05054688 5.875 0.0625 C5.545 1.0525 5.215 2.0425 4.875 3.0625 C4.17632812 3.05089844 3.47765625 3.03929687 2.7578125 3.02734375 C1.84773438 3.01832031 0.93765625 3.00929687 0 3 C-0.90492188 2.98839844 -1.80984375 2.97679687 -2.7421875 2.96484375 C-5.1418585 2.90000743 -5.1418585 2.90000743 -7.125 4.0625 C-7.455 3.0725 -7.785 2.0825 -8.125 1.0625 C-5.36047967 -0.31976016 -3.0788637 -0.03275387 0 0 Z " fill="#696F3E" transform="translate(386.125,164.9375)"/>
<path d="M0 0 C0.66 0.33 1.32 0.66 2 1 C2 3.64 2 6.28 2 9 C2.66 9 3.32 9 4 9 C4 9.66 4 10.32 4 11 C1.36 11 -1.28 11 -4 11 C-3.67 10.34 -3.34 9.68 -3 9 C-2.34 9 -1.68 9 -1 9 C-0.67 6.03 -0.34 3.06 0 0 Z " fill="#787974" transform="translate(151,261)"/>
<path d="M0 0 C5.28 0 10.56 0 16 0 C16 0.99 16 1.98 16 3 C12.71303767 3.79953138 11.28976808 4.09658936 8 3 C8 2.34 8 1.68 8 1 C5.36 1 2.72 1 0 1 C0 0.67 0 0.34 0 0 Z " fill="#E9F7F3" transform="translate(504,375)"/>
<path d="M0 0 C0.66 0 1.32 0 2 0 C3.24327778 5.84340558 2.57300962 10.26696495 1 16 C0.67 16 0.34 16 0 16 C0 10.72 0 5.44 0 0 Z " fill="#407C82" transform="translate(363,334)"/>
<path d="M0 0 C0.99 0.33 1.98 0.66 3 1 C3.12375 2.134375 3.2475 3.26875 3.375 4.4375 C3.684375 6.2009375 3.684375 6.2009375 4 8 C4.66 8.33 5.32 8.66 6 9 C4.1875 9.6875 4.1875 9.6875 2 10 C0.1875 9 0.1875 9 -1 7 C-0.6875 3.3125 -0.6875 3.3125 0 0 Z " fill="#50514C" transform="translate(195,262)"/>
<path d="M0 0 C0.66 0 1.32 0 2 0 C2 3.96 2 7.92 2 12 C1.01 12 0.02 12 -1 12 C-1.02712066 10.56260487 -1.04645067 9.12506137 -1.0625 7.6875 C-1.07410156 6.88699219 -1.08570313 6.08648437 -1.09765625 5.26171875 C-1 3 -1 3 0 0 Z " fill="#4C4D48" transform="translate(252,259)"/>
<path d="M0 0 C1.65 0 3.3 0 5 0 C5 0.99 5 1.98 5 3 C4.01 3.33 3.02 3.66 2 4 C1.83317728 8.92127034 1.75171948 12.50343896 4 17 C3.34 17 2.68 17 2 17 C2 16.01 2 15.02 2 14 C1.34 14 0.68 14 0 14 C0 9.38 0 4.76 0 0 Z " fill="#F8F7E9" transform="translate(123,187)"/>
<path d="M0 0 C4.95 0 9.9 0 15 0 C15 0.33 15 0.66 15 1 C13.35 1 11.7 1 10 1 C10 1.66 10 2.32 10 3 C4.25 4.125 4.25 4.125 2 3 C2 2.34 2 1.68 2 1 C1.34 0.67 0.68 0.34 0 0 Z " fill="#66693F" transform="translate(468,165)"/>
<path d="M0 0 C1.32 0 2.64 0 4 0 C4 1.65 4 3.3 4 5 C2.35 5.33 0.7 5.66 -1 6 C-1.625 4.125 -1.625 4.125 -2 2 C-1.34 1.34 -0.68 0.68 0 0 Z " fill="#E6E7E2" transform="translate(191,264)"/>
<path d="M0 0 C0.99 0 1.98 0 3 0 C3 1.32 3 2.64 3 4 C3.66 4.33 4.32 4.66 5 5 C4.34 6.98 3.68 8.96 3 11 C1.68 10.34 0.36 9.68 -1 9 C-0.01 9 0.98 9 2 9 C1.67 7.68 1.34 6.36 1 5 C0.34 5 -0.32 5 -1 5 C-0.67 3.35 -0.34 1.7 0 0 Z " fill="#E2E3DE" transform="translate(387,260)"/>
<path d="M0 0 C1.98 0 3.96 0 6 0 C6 3.63 6 7.26 6 11 C5.67 11 5.34 11 5 11 C5 9.02 5 7.04 5 5 C4.01 5.33 3.02 5.66 2 6 C2 4.68 2 3.36 2 2 C1.34 2 0.68 2 0 2 C0 1.34 0 0.68 0 0 Z " fill="#70716C" transform="translate(261,257)"/>
<path d="M0 0 C0.33 0 0.66 0 1 0 C1 6.27 1 12.54 1 19 C-0.32 19 -1.64 19 -3 19 C-2.68289062 18.15179688 -2.36578125 17.30359375 -2.0390625 16.4296875 C-0.97128768 12.90522775 -0.59958921 9.79329043 -0.375 6.125 C-0.30023438 4.97257812 -0.22546875 3.82015625 -0.1484375 2.6328125 C-0.09945312 1.76398438 -0.05046875 0.89515625 0 0 Z " fill="#3D7C82" transform="translate(134,352)"/>
<path d="M0 0 C1.32 0.33 2.64 0.66 4 1 C3.01 1 2.02 1 1 1 C1.0870005 2.62600941 1.1951781 4.25089678 1.3125 5.875 C1.37050781 6.77992188 1.42851562 7.68484375 1.48828125 8.6171875 C1.7882039 11.36221601 1.7882039 11.36221601 5 13 C4 14 4 14 1.4375 14.0625 C0.633125 14.041875 -0.17125 14.02125 -1 14 C-1.33 13.34 -1.66 12.68 -2 12 C-1.67 11.34 -1.34 10.68 -1 10 C-0.77377919 8.29636178 -0.59111527 6.58671299 -0.4375 4.875 C-0.35371094 3.96492188 -0.26992188 3.05484375 -0.18359375 2.1171875 C-0.12300781 1.41851562 -0.06242187 0.71984375 0 0 Z " fill="#7F807B" transform="translate(384,258)"/>
<path d="M0 0 C0 1.65 0 3.3 0 5 C-1.65 5.33 -3.3 5.66 -5 6 C-5.33 4.68 -5.66 3.36 -6 2 C-3 0 -3 0 0 0 Z " fill="#DFE0DB" transform="translate(405,264)"/>
<path d="M0 0 C2.31 0 4.62 0 7 0 C7 1.32 7 2.64 7 4 C5.02 4.99 5.02 4.99 3 6 C1.5 4.6875 1.5 4.6875 0 3 C0 2.01 0 1.02 0 0 Z " fill="#90908E" transform="translate(422,257)"/>
<path d="M0 0 C0.99 0 1.98 0 3 0 C3 4.62 3 9.24 3 14 C0.31907309 11.31907309 0.61329743 9.60832637 0.375 5.875 C0.30023437 4.77929688 0.22546875 3.68359375 0.1484375 2.5546875 C0.09945312 1.71164063 0.05046875 0.86859375 0 0 Z " fill="#797A55" transform="translate(517,186)"/>
<path d="M0 0 C2.31 0.33 4.62 0.66 7 1 C3.25 4 3.25 4 1 4 C0.67 5.32 0.34 6.64 0 8 C-0.433125 7.0409375 -0.433125 7.0409375 -0.875 6.0625 C-1.82823451 3.84793921 -1.82823451 3.84793921 -4 3 C-3.01 3 -2.02 3 -1 3 C-0.67 2.01 -0.34 1.02 0 0 Z " fill="#E3E3E1" transform="translate(149,248)"/>
<path d="M0 0 C3.63 0 7.26 0 11 0 C11 0.33 11 0.66 11 1 C5.29959514 2.94331984 5.29959514 2.94331984 2.6875 3.4375 C2.130625 3.623125 1.57375 3.80875 1 4 C0.67 4.99 0.34 5.98 0 7 C0 4.69 0 2.38 0 0 Z " fill="#E8F9F7" transform="translate(389,353)"/>
<path d="M0 0 C3.96 0 7.92 0 12 0 C11.67 0.66 11.34 1.32 11 2 C9.68 2 8.36 2 7 2 C6.67 2.66 6.34 3.32 6 4 C4.35 4 2.7 4 1 4 C0.67 2.68 0.34 1.36 0 0 Z " fill="#367378" transform="translate(269,353)"/>
<path d="M0 0 C3.3 0 6.6 0 10 0 C10 0.99 10 1.98 10 3 C7.03 3 4.06 3 1 3 C0.67 2.01 0.34 1.02 0 0 Z " fill="#357E7F" transform="translate(398,312)"/>
<path d="M0 0 C2.05078125 0.03255208 4.1015625 0.06510417 6.15234375 0.09765625 C6.48234375 0.75765625 6.81234375 1.41765625 7.15234375 2.09765625 C6.51296875 2.38640625 5.87359375 2.67515625 5.21484375 2.97265625 C3.00028296 3.92589076 3.00028296 3.92589076 2.15234375 6.09765625 C0.15234375 5.09765625 0.15234375 5.09765625 -0.84765625 2.09765625 C-1.50765625 1.76765625 -2.16765625 1.43765625 -2.84765625 1.09765625 C-1.84765625 0.09765625 -1.84765625 0.09765625 0 0 Z " fill="#646560" transform="translate(231.84765625,256.90234375)"/>
<path d="M0 0 C0.66 0 1.32 0 2 0 C2.33 0.99 2.66 1.98 3 3 C3.99 3.66 4.98 4.32 6 5 C1.125 9 1.125 9 0 9 C0 6.03 0 3.06 0 0 Z " fill="#E6E7E2" transform="translate(212,254)"/>
<path d="M0 0 C0.99 0 1.98 0 3 0 C3 1.65 3 3.3 3 5 C3.99 5 4.98 5 6 5 C6 5.66 6 6.32 6 7 C3.36 7 0.72 7 -2 7 C-2 6.01 -2 5.02 -2 4 C-0.68 4 0.64 4 2 4 C2 3.01 2 2.02 2 1 C1.34 0.67 0.68 0.34 0 0 Z " fill="#707542" transform="translate(302,200)"/>
<path d="M0 0 C0 0.99 0 1.98 0 3 C-8.57142857 3.28571429 -8.57142857 3.28571429 -12 1 C-8.0186217 -0.3271261 -4.14954773 -0.06915913 0 0 Z " fill="#73744F" transform="translate(120,186)"/>
<path d="M0 0 C0.66 0.33 1.32 0.66 2 1 C1.67 1.66 1.34 2.32 1 3 C1.66 3.33 2.32 3.66 3 4 C2.34 6.31 1.68 8.62 1 11 C-1 9 -1 9 -1.23046875 7.08984375 C-1.11111111 1.11111111 -1.11111111 1.11111111 0 0 Z " fill="#737638" transform="translate(489,167)"/>
<path d="M0 0 C0.99 0 1.98 0 3 0 C3.33 0.99 3.66 1.98 4 3 C6.00016466 4.20882096 6.00016466 4.20882096 8 5 C6.68 5.99 5.36 6.98 4 8 C2 6.25 2 6.25 0 4 C0 2.68 0 1.36 0 0 Z " fill="#F5F5F3" transform="translate(64,136)"/>
<path d="M0 0 C0.33 0 0.66 0 1 0 C1 1.98 1 3.96 1 6 C1.639375 6.103125 2.27875 6.20625 2.9375 6.3125 C3.618125 6.539375 4.29875 6.76625 5 7 C5.33 7.99 5.66 8.98 6 10 C4.125 10.625 4.125 10.625 2 11 C0 9 0 9 -0.1953125 6.8359375 C-0.17210937 6.02382813 -0.14890625 5.21171875 -0.125 4.375 C-0.10695312 3.55773437 -0.08890625 2.74046875 -0.0703125 1.8984375 C-0.04710937 1.27195312 -0.02390625 0.64546875 0 0 Z " fill="#D1D2CD" transform="translate(234,261)"/>
<path d="M0 0 C2.475 0.495 2.475 0.495 5 1 C5 1.99 5 2.98 5 4 C4.34 4 3.68 4 3 4 C3 8.29 3 12.58 3 17 C2.67 17 2.34 17 2 17 C1.93941406 15.94039063 1.87882813 14.88078125 1.81640625 13.7890625 C1.73199873 12.40102779 1.64735083 11.01300768 1.5625 9.625 C1.52318359 8.92632812 1.48386719 8.22765625 1.44335938 7.5078125 C1.25719866 3.62639508 1.25719866 3.62639508 0 0 Z " fill="#5C5D58" transform="translate(206,250)"/>
<path d="M0 0 C0.33 0 0.66 0 1 0 C1 1.65 1 3.3 1 5 C-2.63 5 -6.26 5 -10 5 C-10 4.34 -10 3.68 -10 3 C-6.7 2.67 -3.4 2.34 0 2 C0 1.34 0 0.68 0 0 Z " fill="#6F7148" transform="translate(386,202)"/>
<path d="M0 0 C5.61 0 11.22 0 17 0 C17 1.98 17 3.96 17 6 C16.67 5.01 16.34 4.02 16 3 C12.68455701 1.89485234 9.79589889 1.67892369 6.3125 1.4375 C5.13300781 1.35371094 3.95351562 1.26992187 2.73828125 1.18359375 C1.83464844 1.12300781 0.93101562 1.06242188 0 1 C0 0.67 0 0.34 0 0 Z " fill="#F0F1D7" transform="translate(238,186)"/>
<path d="M0 0 C1.65 0 3.3 0 5 0 C5.33 1.32 5.66 2.64 6 4 C3.69 4 1.38 4 -1 4 C-0.67 2.68 -0.34 1.36 0 0 Z " fill="#E2E3DE" transform="translate(344,258)"/>
<path d="M0 0 C1.485 0.99 1.485 0.99 3 2 C3 2.66 3 3.32 3 4 C2.34 4 1.68 4 1 4 C1.33 7.96 1.66 11.92 2 16 C1.34 16.33 0.68 16.66 0 17 C-0.19561869 14.9174133 -0.38119313 12.83388144 -0.5625 10.75 C-0.66691406 9.58984375 -0.77132813 8.4296875 -0.87890625 7.234375 C-0.98198087 4.48128523 -0.86213473 2.580018 0 0 Z " fill="#EBF8F5" transform="translate(332,353)"/>
<path d="M0 0 C0.33 0 0.66 0 1 0 C1 1.65 1 3.3 1 5 C-4.28 5 -9.56 5 -15 5 C-15 4.67 -15 4.34 -15 4 C-14.16855469 3.93941406 -13.33710938 3.87882813 -12.48046875 3.81640625 C-11.39378906 3.73261719 -10.30710937 3.64882812 -9.1875 3.5625 C-7.56908203 3.44068359 -7.56908203 3.44068359 -5.91796875 3.31640625 C-2.94010095 3.09787539 -2.94010095 3.09787539 0 2 C0 1.34 0 0.68 0 0 Z " fill="#F7F6E0" transform="translate(439,159)"/>
<path d="M0 0 C0.33 0 0.66 0 1 0 C1.06058594 1.12019531 1.12117188 2.24039062 1.18359375 3.39453125 C1.26801424 4.86719984 1.35266149 6.33985544 1.4375 7.8125 C1.47681641 8.55048828 1.51613281 9.28847656 1.55664062 10.04882812 C1.74381035 13.23071342 1.98720793 15.96162378 3 19 C2.01 19 1.02 19 0 19 C0 12.73 0 6.46 0 0 Z " fill="#E1FAFB" transform="translate(468,312)"/>
<path d="M0 0 C2.0625 0.4375 2.0625 0.4375 4 1 C3.67 2.65 3.34 4.3 3 6 C1.68 6.33 0.36 6.66 -1 7 C-1.04254356 5.00045254 -1.04080783 2.99958364 -1 1 C-0.67 0.67 -0.34 0.34 0 0 Z " fill="#EAEBE6" transform="translate(236,259)"/>
<path d="M0 0 C0.66 0 1.32 0 2 0 C3 3 3 3 2 6 C-0.9719385 4.87548273 -3.33440687 3.77706209 -6 2 C-4.68 2 -3.36 2 -2 2 C-1.34 1.34 -0.68 0.68 0 0 Z " fill="#DCDDD8" transform="translate(394,256)"/>
<path d="M0 0 C0.33 0 0.66 0 1 0 C1 6.27 1 12.54 1 19 C0.01 18.67 -0.98 18.34 -2 18 C-1.505 16.515 -1.505 16.515 -1 15 C-0.77281504 12.43365139 -0.58391816 9.88321893 -0.4375 7.3125 C-0.39431641 6.61060547 -0.35113281 5.90871094 -0.30664062 5.18554688 C-0.2008264 3.45724794 -0.09993419 1.7286489 0 0 Z " fill="#E7E9D4" transform="translate(466,186)"/>
<path d="M0 0 C3.63 0.33 7.26 0.66 11 1 C11 1.66 11 2.32 11 3 C7.7 3 4.4 3 1 3 C0.67 2.01 0.34 1.02 0 0 Z " fill="#4B8886" transform="translate(469,370)"/>
<path d="M0 0 C-0.99 0.33 -1.98 0.66 -3 1 C-3 1.66 -3 2.32 -3 3 C-4.32 3.33 -5.64 3.66 -7 4 C-7.66 2.68 -8.32 1.36 -9 0 C-5.67465243 -1.10844919 -3.37817425 -0.84454356 0 0 Z " fill="#458A91" transform="translate(496,355)"/>
<path d="M0 0 C0.66 0 1.32 0 2 0 C3.38111722 2.2747813 4.05694702 3.50171361 3.75 6.1875 C3 8 3 8 1 9 C0.67 6.03 0.34 3.06 0 0 Z " fill="#D7D8D3" transform="translate(153,255)"/>
<path d="M0 0 C0.99 0.33 1.98 0.66 3 1 C3 1.66 3 2.32 3 3 C3.31478446 4.33783393 3.64587656 5.67203709 4 7 C2.68 7 1.36 7 0 7 C0 4.69 0 2.38 0 0 Z " fill="#E5E6E1" transform="translate(162,257)"/>
<path d="M0 0 C1.32 0 2.64 0 4 0 C4 3.63 4 7.26 4 11 C1.23522547 8.23522547 1.47541559 5.8033247 1 2 C0.67 1.34 0.34 0.68 0 0 Z " fill="#53544F" transform="translate(272,257)"/>
<path d="M0 0 C1.32 0.33 2.64 0.66 4 1 C4 1.66 4 2.32 4 3 C4.66 3.33 5.32 3.66 6 4 C2.37 4 -1.26 4 -5 4 C-3.68 3.67 -2.36 3.34 -1 3 C-0.67 2.01 -0.34 1.02 0 0 Z " fill="#82835A" transform="translate(461,182)"/>
<path d="M0 0 C0.66 0.33 1.32 0.66 2 1 C2.625 3.0625 2.625 3.0625 3 5 C-1.75 6 -1.75 6 -4 6 C-2.84826645 3.53199953 -1.95216435 1.95216435 0 0 Z " fill="#E7E8E3" transform="translate(183,266)"/>
<path d="M0 0 C0.66 0 1.32 0 2 0 C3.20628008 2.33214148 4.1654738 4.49642139 5 7 C4.01 7.495 4.01 7.495 3 8 C2.01 7.67 1.02 7.34 0 7 C0 4.69 0 2.38 0 0 Z " fill="#DDDED9" transform="translate(409,263)"/>
<path d="M0 0 C0.33 0 0.66 0 1 0 C1 1.65 1 3.3 1 5 C1.66 5.33 2.32 5.66 3 6 C2.34 6 1.68 6 1 6 C1.33 7.32 1.66 8.64 2 10 C1.01 10 0.02 10 -1 10 C-1.02689216 8.52093108 -1.04634621 7.04172517 -1.0625 5.5625 C-1.07410156 4.73878906 -1.08570313 3.91507812 -1.09765625 3.06640625 C-1 1 -1 1 0 0 Z " fill="#E5E6E1" transform="translate(245,260)"/>
<path d="M0 0 C0.66 0 1.32 0 2 0 C3.38232443 1.62626404 4.71937515 3.2925002 6 5 C3.36 5 0.72 5 -2 5 C-2 4.34 -2 3.68 -2 3 C-1.34 3 -0.68 3 0 3 C0 2.01 0 1.02 0 0 Z " fill="#72736E" transform="translate(208,267)"/>
<path d="M0 0 C0.33 0.99 0.66 1.98 1 3 C-1.3431213 2.74438677 -3.67843403 2.40729228 -6 2 C-6.33 1.34 -6.66 0.68 -7 0 C-4.3333581 -1.33332095 -2.83319697 -0.67102033 0 0 Z " fill="#52534E" transform="translate(369,263)"/>
<path d="M0 0 C0.33 0 0.66 0 1 0 C1.33 4.62 1.66 9.24 2 14 C1.01 14 0.02 14 -1 14 C-0.67 9.38 -0.34 4.76 0 0 Z " fill="#51514F" transform="translate(318,255)"/>
<path d="M0 0 C0.66 0 1.32 0 2 0 C2 1.65 2 3.3 2 5 C0.35 5 -1.3 5 -3 5 C-3.33 3.68 -3.66 2.36 -4 1 C-3.34 1 -2.68 1 -2 1 C-2 1.66 -2 2.32 -2 3 C-1.34 3 -0.68 3 0 3 C0 2.01 0 1.02 0 0 Z " fill="#7C8049" transform="translate(419,200)"/>
<path d="M0 0 C3.3 0 6.6 0 10 0 C10 1.65 10 3.3 10 5 C9.01 5 8.02 5 7 5 C7 4.01 7 3.02 7 2 C4.69 1.67 2.38 1.34 0 1 C0 0.67 0 0.34 0 0 Z " fill="#75744A" transform="translate(483,165)"/>
<path d="M0 0 C3.3 0.33 6.6 0.66 10 1 C8 3 8 3 6.0546875 3.1953125 C4.03645833 3.13020833 2.01822917 3.06510417 0 3 C0 2.01 0 1.02 0 0 Z " fill="#488383" transform="translate(338,370)"/>
<path d="M0 0 C1.67542976 0.28604898 3.34385343 0.61781233 5 1 C4.01 1.495 4.01 1.495 3 2 C2.67 2.66 2.34 3.32 2 4 C-1.63 3.67 -5.26 3.34 -9 3 C-9 2.67 -9 2.34 -9 2 C-6.94921875 1.77213542 -4.8984375 1.54427083 -2.84765625 1.31640625 C-0.98859771 1.18113386 -0.98859771 1.18113386 0 0 Z " fill="#3E7B7A" transform="translate(241,328)"/>
<path d="M0 0 C0.99 0 1.98 0 3 0 C3 0.66 3 1.32 3 2 C3.99 2.33 4.98 2.66 6 3 C4 5 4 5 1 6 C0.67 4.02 0.34 2.04 0 0 Z " fill="#E3E4DF" transform="translate(199,267)"/>
<path d="M0 0 C1.65 1.32 3.3 2.64 5 4 C4.34 5.32 3.68 6.64 3 8 C3 7.34 3 6.68 3 6 C2.01 6 1.02 6 0 6 C0 4.02 0 2.04 0 0 Z " fill="#F6F7F2" transform="translate(153,261)"/>
<path d="M0 0 C0.33 0.66 0.66 1.32 1 2 C2.32 1.67 3.64 1.34 5 1 C5 2.65 5 4.3 5 6 C4.67 5.01 4.34 4.02 4 3 C3.34 3 2.68 3 2 3 C2.33 3.99 2.66 4.98 3 6 C1.68 5.34 0.36 4.68 -1 4 C-0.67 2.68 -0.34 1.36 0 0 Z " fill="#E7E7E5" transform="translate(427,262)"/>
<path d="M0 0 C1.98 0.99 1.98 0.99 4 2 C4 3.32 4 4.64 4 6 C2.68 5.34 1.36 4.68 0 4 C0 2.68 0 1.36 0 0 Z " fill="#E6E7E2" transform="translate(343,263)"/>
<path d="M0 0 C0 0.66 0 1.32 0 2 C-0.99 2.66 -1.98 3.32 -3 4 C-4.19232613 6.05003955 -4.19232613 6.05003955 -5 8 C-5 6.68 -5 5.36 -5 4 C-5.66 3.67 -6.32 3.34 -7 3 C-3.375 0 -3.375 0 0 0 Z " fill="#D9DAD5" transform="translate(400,262)"/>
<path d="M0 0 C1.89213369 2.38573379 3.02391783 4.07175348 4 7 C3.01 7.33 2.02 7.66 1 8 C0.01 7.01 -0.98 6.02 -2 5 C-1.34 3.35 -0.68 1.7 0 0 Z " fill="#E8E9E4" transform="translate(337,263)"/>
<path d="M0 0 C0.33 0 0.66 0 1 0 C1 1.98 1 3.96 1 6 C2.32 6 3.64 6 5 6 C4.67 6.99 4.34 7.98 4 9 C2.68 9 1.36 9 0 9 C0 6.03 0 3.06 0 0 Z " fill="#EFEFDC" transform="translate(415,155)"/>
<path d="M0 0 C0.66 0 1.32 0 2 0 C2 2.31 2 4.62 2 7 C1.01 7 0.02 7 -1 7 C-1.04254356 5.00045254 -1.04080783 2.99958364 -1 1 C-0.67 0.67 -0.34 0.34 0 0 Z " fill="#777850" transform="translate(253,144)"/>
<path d="M0 0 C1.9375 0.3125 1.9375 0.3125 4 1 C4.33 1.99 4.66 2.98 5 4 C4.01 4.66 3.02 5.32 2 6 C1.34 4.02 0.68 2.04 0 0 Z M1 6 C1.33 6.66 1.66 7.32 2 8 C1.34 7.67 0.68 7.34 0 7 C0.33 6.67 0.66 6.34 1 6 Z " fill="#E4E5E0" transform="translate(131,464)"/>
<path d="M0 0 C1.98 0.99 1.98 0.99 4 2 C4 3.33333333 4 4.66666667 4 6 C3.01 6.33 2.02 6.66 1 7 C0 4 0 4 0 0 Z M-1 6 C-0.67 6.66 -0.34 7.32 0 8 C-0.66 7.67 -1.32 7.34 -2 7 C-1.67 6.67 -1.34 6.34 -1 6 Z " fill="#F7F8F3" transform="translate(225,259)"/>
<path d="M0 0 C2.64 0 5.28 0 8 0 C7.01 1.485 7.01 1.485 6 3 C3.375 3.1875 3.375 3.1875 1 3 C0.67 2.01 0.34 1.02 0 0 Z " fill="#81844C" transform="translate(492,188)"/>
<path d="M0 0 C2.31 0 4.62 0 7 0 C7.33 0.99 7.66 1.98 8 3 C5.6568787 2.74438677 3.32156597 2.40729228 1 2 C0.67 1.34 0.34 0.68 0 0 Z " fill="#7B8252" transform="translate(179,165)"/>
<path d="M0 0 C0.66 0 1.32 0 2 0 C2.66 0.99 3.32 1.98 4 3 C6.56282742 3.72965366 6.56282742 3.72965366 9 4 C9 4.33 9 4.66 9 5 C2.25 5.125 2.25 5.125 0 4 C0 2.68 0 1.36 0 0 Z " fill="#575853" transform="translate(360,267)"/>
<path d="M0 0 C2.31 0 4.62 0 7 0 C7 2.31 7 4.62 7 7 C6.896875 6.360625 6.79375 5.72125 6.6875 5.0625 C6.3471875 4.0415625 6.3471875 4.0415625 6 3 C5.01 2.67 4.02 2.34 3 2 C2.01 1.34 1.02 0.68 0 0 Z " fill="#777954" transform="translate(274,165)"/>
<path d="M0 0 C1.98 0 3.96 0 6 0 C6 0.99 6 1.98 6 3 C4.02 3 2.04 3 0 3 C0 2.01 0 1.02 0 0 Z " fill="#418891" transform="translate(276,368)"/>
<path d="M0 0 C0.99 0.495 0.99 0.495 2 1 C3.04449911 4.13349732 2.93423645 4.98968256 2 8 C1.34 8 0.68 8 0 8 C0 5.36 0 2.72 0 0 Z " fill="#494A45" transform="translate(231,261)"/>
<path d="M0 0 C0.99 0.33 1.98 0.66 3 1 C2.67 2.65 2.34 4.3 2 6 C1.34 6 0.68 6 0 6 C-0.38218767 4.34385343 -0.71395102 2.67542976 -1 1 C-0.67 0.67 -0.34 0.34 0 0 Z " fill="#52534E" transform="translate(157,256)"/>
<path d="M0 0 C2 3 2 3 3 6 C1.02 6.99 1.02 6.99 -1 8 C-1.125 2.25 -1.125 2.25 0 0 Z " fill="#6C6C69" transform="translate(156,250)"/>
<path d="M0 0 C0.99 0.495 0.99 0.495 2 1 C3.29411765 8.41176471 3.29411765 8.41176471 2 11 C1.34 10.67 0.68 10.34 0 10 C0 6.7 0 3.4 0 0 Z " fill="#6B713C" transform="translate(470,191)"/>
</svg>
